<?xml version="1.0" encoding="utf-8" standalone="no"?>
<!DOCTYPE svg PUBLIC "-//W3C//DTD SVG 1.1//EN"
  "http://www.w3.org/Graphics/SVG/1.1/DTD/svg11.dtd">
<svg xmlns:xlink="http://www.w3.org/1999/xlink" width="852.394375pt" height="275.353594pt" viewBox="0 0 852.394375 275.353594" xmlns="http://www.w3.org/2000/svg" version="1.1">
 <metadata>
  <rdf:RDF xmlns:dc="http://purl.org/dc/elements/1.1/" xmlns:cc="http://creativecommons.org/ns#" xmlns:rdf="http://www.w3.org/1999/02/22-rdf-syntax-ns#">
   <cc:Work>
    <dc:type rdf:resource="http://purl.org/dc/dcmitype/StillImage"/>
    <dc:date>2025-10-25T11:38:48.611895</dc:date>
    <dc:format>image/svg+xml</dc:format>
    <dc:creator>
     <cc:Agent>
      <dc:title>Matplotlib v3.8.2, https://matplotlib.org/</dc:title>
     </cc:Agent>
    </dc:creator>
   </cc:Work>
  </rdf:RDF>
 </metadata>
 <defs>
  <style type="text/css">*{stroke-linejoin: round; stroke-linecap: butt}</style>
 </defs>
 <g id="figure_1">
  <g id="patch_1">
   <path d="M 0 275.353594 
L 852.394375 275.353594 
L 852.394375 0 
L 0 0 
z
" style="fill: #ffffff"/>
  </g>
  <g id="axes_1">
   <g id="patch_2">
    <path d="M 50.333125 233.619375 
L 422.674375 233.619375 
L 422.674375 21.789375 
L 50.333125 21.789375 
z
" style="fill: #ffffff"/>
   </g>
   <g id="matplotlib.axis_1">
    <g id="xtick_1">
     <g id="line2d_1">
      <path d="M 81.640778 233.619375 
L 81.640778 21.789375 
" clip-path="url(#p7add1c55c5)" style="fill: none; stroke: #cccccc; stroke-linecap: round"/>
     </g>
     <g id="text_1">
      <!-- −10 -->
      <g style="fill: #262626" transform="translate(72.311403 250.992969) scale(0.11 -0.11)">
       <defs>
        <path id="ArialMT-2212" d="M 3381 1997 
L 356 1997 
L 356 2522 
L 3381 2522 
L 3381 1997 
z
" transform="scale(0.015625)"/>
        <path id="ArialMT-31" d="M 2384 0 
L 1822 0 
L 1822 3584 
Q 1619 3391 1289 3197 
Q 959 3003 697 2906 
L 697 3450 
Q 1169 3672 1522 3987 
Q 1875 4303 2022 4600 
L 2384 4600 
L 2384 0 
z
" transform="scale(0.015625)"/>
        <path id="ArialMT-30" d="M 266 2259 
Q 266 3072 433 3567 
Q 600 4063 929 4331 
Q 1259 4600 1759 4600 
Q 2128 4600 2406 4451 
Q 2684 4303 2865 4023 
Q 3047 3744 3150 3342 
Q 3253 2941 3253 2259 
Q 3253 1453 3087 958 
Q 2922 463 2592 192 
Q 2263 -78 1759 -78 
Q 1097 -78 719 397 
Q 266 969 266 2259 
z
M 844 2259 
Q 844 1131 1108 757 
Q 1372 384 1759 384 
Q 2147 384 2411 759 
Q 2675 1134 2675 2259 
Q 2675 3391 2411 3762 
Q 2147 4134 1753 4134 
Q 1366 4134 1134 3806 
Q 844 3388 844 2259 
z
" transform="scale(0.015625)"/>
       </defs>
       <use xlink:href="#ArialMT-2212"/>
       <use xlink:href="#ArialMT-31" x="58.398438"/>
       <use xlink:href="#ArialMT-30" x="114.013672"/>
      </g>
     </g>
    </g>
    <g id="xtick_2">
     <g id="line2d_2">
      <path d="M 152.142715 233.619375 
L 152.142715 21.789375 
" clip-path="url(#p7add1c55c5)" style="fill: none; stroke: #cccccc; stroke-linecap: round"/>
     </g>
     <g id="text_2">
      <!-- −5 -->
      <g style="fill: #262626" transform="translate(145.871856 250.992969) scale(0.11 -0.11)">
       <defs>
        <path id="ArialMT-35" d="M 266 1200 
L 856 1250 
Q 922 819 1161 601 
Q 1400 384 1738 384 
Q 2144 384 2425 690 
Q 2706 997 2706 1503 
Q 2706 1984 2436 2262 
Q 2166 2541 1728 2541 
Q 1456 2541 1237 2417 
Q 1019 2294 894 2097 
L 366 2166 
L 809 4519 
L 3088 4519 
L 3088 3981 
L 1259 3981 
L 1013 2750 
Q 1425 3038 1878 3038 
Q 2478 3038 2890 2622 
Q 3303 2206 3303 1553 
Q 3303 931 2941 478 
Q 2500 -78 1738 -78 
Q 1113 -78 717 272 
Q 322 622 266 1200 
z
" transform="scale(0.015625)"/>
       </defs>
       <use xlink:href="#ArialMT-2212"/>
       <use xlink:href="#ArialMT-35" x="58.398438"/>
      </g>
     </g>
    </g>
    <g id="xtick_3">
     <g id="line2d_3">
      <path d="M 222.644653 233.619375 
L 222.644653 21.789375 
" clip-path="url(#p7add1c55c5)" style="fill: none; stroke: #cccccc; stroke-linecap: round"/>
     </g>
     <g id="text_3">
      <!-- 0 -->
      <g style="fill: #262626" transform="translate(219.586137 250.992969) scale(0.11 -0.11)">
       <use xlink:href="#ArialMT-30"/>
      </g>
     </g>
    </g>
    <g id="xtick_4">
     <g id="line2d_4">
      <path d="M 293.14659 233.619375 
L 293.14659 21.789375 
" clip-path="url(#p7add1c55c5)" style="fill: none; stroke: #cccccc; stroke-linecap: round"/>
     </g>
     <g id="text_4">
      <!-- 5 -->
      <g style="fill: #262626" transform="translate(290.088075 250.992969) scale(0.11 -0.11)">
       <use xlink:href="#ArialMT-35"/>
      </g>
     </g>
    </g>
    <g id="xtick_5">
     <g id="line2d_5">
      <path d="M 363.648528 233.619375 
L 363.648528 21.789375 
" clip-path="url(#p7add1c55c5)" style="fill: none; stroke: #cccccc; stroke-linecap: round"/>
     </g>
     <g id="text_5">
      <!-- 10 -->
      <g style="fill: #262626" transform="translate(357.531496 250.992969) scale(0.11 -0.11)">
       <use xlink:href="#ArialMT-31"/>
       <use xlink:href="#ArialMT-30" x="55.615234"/>
      </g>
     </g>
    </g>
    <g id="text_6">
     <!-- x -->
     <g style="fill: #262626" transform="translate(233.50375 265.768594) scale(0.12 -0.12)">
      <defs>
       <path id="ArialMT-78" d="M 47 0 
L 1259 1725 
L 138 3319 
L 841 3319 
L 1350 2541 
Q 1494 2319 1581 2169 
Q 1719 2375 1834 2534 
L 2394 3319 
L 3066 3319 
L 1919 1756 
L 3153 0 
L 2463 0 
L 1781 1031 
L 1600 1309 
L 728 0 
L 47 0 
z
" transform="scale(0.015625)"/>
      </defs>
      <use xlink:href="#ArialMT-78"/>
     </g>
    </g>
   </g>
   <g id="matplotlib.axis_2">
    <g id="ytick_1">
     <g id="line2d_6">
      <path d="M 50.333125 226.83268 
L 422.674375 226.83268 
" clip-path="url(#p7add1c55c5)" style="fill: none; stroke: #cccccc; stroke-linecap: round"/>
     </g>
     <g id="text_7">
      <!-- −50 -->
      <g style="fill: #262626" transform="translate(22.174375 230.769477) scale(0.11 -0.11)">
       <use xlink:href="#ArialMT-2212"/>
       <use xlink:href="#ArialMT-35" x="58.398438"/>
       <use xlink:href="#ArialMT-30" x="114.013672"/>
      </g>
     </g>
    </g>
    <g id="ytick_2">
     <g id="line2d_7">
      <path d="M 50.333125 183.316212 
L 422.674375 183.316212 
" clip-path="url(#p7add1c55c5)" style="fill: none; stroke: #cccccc; stroke-linecap: round"/>
     </g>
     <g id="text_8">
      <!-- 0 -->
      <g style="fill: #262626" transform="translate(34.716094 187.253009) scale(0.11 -0.11)">
       <use xlink:href="#ArialMT-30"/>
      </g>
     </g>
    </g>
    <g id="ytick_3">
     <g id="line2d_8">
      <path d="M 50.333125 139.799743 
L 422.674375 139.799743 
" clip-path="url(#p7add1c55c5)" style="fill: none; stroke: #cccccc; stroke-linecap: round"/>
     </g>
     <g id="text_9">
      <!-- 50 -->
      <g style="fill: #262626" transform="translate(28.599063 143.73654) scale(0.11 -0.11)">
       <use xlink:href="#ArialMT-35"/>
       <use xlink:href="#ArialMT-30" x="55.615234"/>
      </g>
     </g>
    </g>
    <g id="ytick_4">
     <g id="line2d_9">
      <path d="M 50.333125 96.283275 
L 422.674375 96.283275 
" clip-path="url(#p7add1c55c5)" style="fill: none; stroke: #cccccc; stroke-linecap: round"/>
     </g>
     <g id="text_10">
      <!-- 100 -->
      <g style="fill: #262626" transform="translate(22.482031 100.220072) scale(0.11 -0.11)">
       <use xlink:href="#ArialMT-31"/>
       <use xlink:href="#ArialMT-30" x="55.615234"/>
       <use xlink:href="#ArialMT-30" x="111.230469"/>
      </g>
     </g>
    </g>
    <g id="ytick_5">
     <g id="line2d_10">
      <path d="M 50.333125 52.766806 
L 422.674375 52.766806 
" clip-path="url(#p7add1c55c5)" style="fill: none; stroke: #cccccc; stroke-linecap: round"/>
     </g>
     <g id="text_11">
      <!-- 150 -->
      <g style="fill: #262626" transform="translate(22.482031 56.703603) scale(0.11 -0.11)">
       <use xlink:href="#ArialMT-31"/>
       <use xlink:href="#ArialMT-35" x="55.615234"/>
       <use xlink:href="#ArialMT-30" x="111.230469"/>
      </g>
     </g>
    </g>
    <g id="text_12">
     <!-- y -->
     <g style="fill: #262626" transform="translate(15.64875 130.704375) rotate(-90) scale(0.12 -0.12)">
      <defs>
       <path id="ArialMT-79" d="M 397 -1278 
L 334 -750 
Q 519 -800 656 -800 
Q 844 -800 956 -737 
Q 1069 -675 1141 -563 
Q 1194 -478 1313 -144 
Q 1328 -97 1363 -6 
L 103 3319 
L 709 3319 
L 1400 1397 
Q 1534 1031 1641 628 
Q 1738 1016 1872 1384 
L 2581 3319 
L 3144 3319 
L 1881 -56 
Q 1678 -603 1566 -809 
Q 1416 -1088 1222 -1217 
Q 1028 -1347 759 -1347 
Q 597 -1347 397 -1278 
z
" transform="scale(0.015625)"/>
      </defs>
      <use xlink:href="#ArialMT-79"/>
     </g>
    </g>
   </g>
   <g id="PathCollection_1">
    <defs>
     <path id="md0fbe1d1f7" d="M 0 2.236068 
C 0.593012 2.236068 1.161816 2.000462 1.581139 1.581139 
C 2.000462 1.161816 2.236068 0.593012 2.236068 0 
C 2.236068 -0.593012 2.000462 -1.161816 1.581139 -1.581139 
C 1.161816 -2.000462 0.593012 -2.236068 0 -2.236068 
C -0.593012 -2.236068 -1.161816 -2.000462 -1.581139 -1.581139 
C -2.000462 -1.161816 -2.236068 -0.593012 -2.236068 0 
C -2.236068 0.593012 -2.000462 1.161816 -1.581139 1.581139 
C -1.161816 2.000462 -0.593012 2.236068 0 2.236068 
z
" style="stroke: #4c72b0"/>
    </defs>
    <g clip-path="url(#p7add1c55c5)">
     <use xlink:href="#md0fbe1d1f7" x="142.706854" y="169.386468" style="fill: #4c72b0; stroke: #4c72b0"/>
     <use xlink:href="#md0fbe1d1f7" x="249.739901" y="184.103911" style="fill: #4c72b0; stroke: #4c72b0"/>
     <use xlink:href="#md0fbe1d1f7" x="328.154593" y="177.247956" style="fill: #4c72b0; stroke: #4c72b0"/>
     <use xlink:href="#md0fbe1d1f7" x="197.589512" y="179.058012" style="fill: #4c72b0; stroke: #4c72b0"/>
     <use xlink:href="#md0fbe1d1f7" x="167.122012" y="183.108182" style="fill: #4c72b0; stroke: #4c72b0"/>
     <use xlink:href="#md0fbe1d1f7" x="190.25332" y="175.683168" style="fill: #4c72b0; stroke: #4c72b0"/>
     <use xlink:href="#md0fbe1d1f7" x="218.47314" y="180.252587" style="fill: #4c72b0; stroke: #4c72b0"/>
     <use xlink:href="#md0fbe1d1f7" x="197.674735" y="178.452541" style="fill: #4c72b0; stroke: #4c72b0"/>
     <use xlink:href="#md0fbe1d1f7" x="170.788852" y="175.322768" style="fill: #4c72b0; stroke: #4c72b0"/>
     <use xlink:href="#md0fbe1d1f7" x="139.174597" y="184.516025" style="fill: #4c72b0; stroke: #4c72b0"/>
     <use xlink:href="#md0fbe1d1f7" x="239.487152" y="182.217743" style="fill: #4c72b0; stroke: #4c72b0"/>
     <use xlink:href="#md0fbe1d1f7" x="181.054131" y="170.815936" style="fill: #4c72b0; stroke: #4c72b0"/>
     <use xlink:href="#md0fbe1d1f7" x="121.080611" y="163.099558" style="fill: #4c72b0; stroke: #4c72b0"/>
     <use xlink:href="#md0fbe1d1f7" x="277.192221" y="190.567683" style="fill: #4c72b0; stroke: #4c72b0"/>
     <use xlink:href="#md0fbe1d1f7" x="150.170964" y="166.43824" style="fill: #4c72b0; stroke: #4c72b0"/>
     <use xlink:href="#md0fbe1d1f7" x="216.229946" y="179.937687" style="fill: #4c72b0; stroke: #4c72b0"/>
     <use xlink:href="#md0fbe1d1f7" x="257.331818" y="185.99772" style="fill: #4c72b0; stroke: #4c72b0"/>
     <use xlink:href="#md0fbe1d1f7" x="252.584866" y="182.023574" style="fill: #4c72b0; stroke: #4c72b0"/>
     <use xlink:href="#md0fbe1d1f7" x="313.10208" y="200.634016" style="fill: #4c72b0; stroke: #4c72b0"/>
     <use xlink:href="#md0fbe1d1f7" x="244.92231" y="182.892072" style="fill: #4c72b0; stroke: #4c72b0"/>
     <use xlink:href="#md0fbe1d1f7" x="193.874067" y="181.743108" style="fill: #4c72b0; stroke: #4c72b0"/>
     <use xlink:href="#md0fbe1d1f7" x="217.854216" y="180.08111" style="fill: #4c72b0; stroke: #4c72b0"/>
     <use xlink:href="#md0fbe1d1f7" x="155.496728" y="182.595818" style="fill: #4c72b0; stroke: #4c72b0"/>
     <use xlink:href="#md0fbe1d1f7" x="214.841681" y="179.741596" style="fill: #4c72b0; stroke: #4c72b0"/>
     <use xlink:href="#md0fbe1d1f7" x="262.872656" y="181.330363" style="fill: #4c72b0; stroke: #4c72b0"/>
     <use xlink:href="#md0fbe1d1f7" x="287.183548" y="188.268654" style="fill: #4c72b0; stroke: #4c72b0"/>
     <use xlink:href="#md0fbe1d1f7" x="104.952913" y="160.883423" style="fill: #4c72b0; stroke: #4c72b0"/>
     <use xlink:href="#md0fbe1d1f7" x="256.6769" y="186.336372" style="fill: #4c72b0; stroke: #4c72b0"/>
     <use xlink:href="#md0fbe1d1f7" x="200.755728" y="178.093961" style="fill: #4c72b0; stroke: #4c72b0"/>
     <use xlink:href="#md0fbe1d1f7" x="391.474918" y="176.83859" style="fill: #4c72b0; stroke: #4c72b0"/>
     <use xlink:href="#md0fbe1d1f7" x="331.988287" y="223.990739" style="fill: #4c72b0; stroke: #4c72b0"/>
     <use xlink:href="#md0fbe1d1f7" x="177.067605" y="172.182267" style="fill: #4c72b0; stroke: #4c72b0"/>
     <use xlink:href="#md0fbe1d1f7" x="157.152778" y="165.272837" style="fill: #4c72b0; stroke: #4c72b0"/>
     <use xlink:href="#md0fbe1d1f7" x="105.965628" y="126.960484" style="fill: #4c72b0; stroke: #4c72b0"/>
     <use xlink:href="#md0fbe1d1f7" x="247.333903" y="183.96947" style="fill: #4c72b0; stroke: #4c72b0"/>
     <use xlink:href="#md0fbe1d1f7" x="212.650544" y="179.834795" style="fill: #4c72b0; stroke: #4c72b0"/>
     <use xlink:href="#md0fbe1d1f7" x="259.381928" y="183.378163" style="fill: #4c72b0; stroke: #4c72b0"/>
     <use xlink:href="#md0fbe1d1f7" x="221.171101" y="180.525204" style="fill: #4c72b0; stroke: #4c72b0"/>
     <use xlink:href="#md0fbe1d1f7" x="99.700276" y="188.260553" style="fill: #4c72b0; stroke: #4c72b0"/>
     <use xlink:href="#md0fbe1d1f7" x="166.302404" y="180.51234" style="fill: #4c72b0; stroke: #4c72b0"/>
     <use xlink:href="#md0fbe1d1f7" x="130.740412" y="197.34526" style="fill: #4c72b0; stroke: #4c72b0"/>
     <use xlink:href="#md0fbe1d1f7" x="235.2014" y="182.258554" style="fill: #4c72b0; stroke: #4c72b0"/>
     <use xlink:href="#md0fbe1d1f7" x="199.068638" y="175.657559" style="fill: #4c72b0; stroke: #4c72b0"/>
     <use xlink:href="#md0fbe1d1f7" x="201.069147" y="177.750213" style="fill: #4c72b0; stroke: #4c72b0"/>
     <use xlink:href="#md0fbe1d1f7" x="199.209416" y="176.650044" style="fill: #4c72b0; stroke: #4c72b0"/>
     <use xlink:href="#md0fbe1d1f7" x="361.036243" y="178.463699" style="fill: #4c72b0; stroke: #4c72b0"/>
     <use xlink:href="#md0fbe1d1f7" x="273.352642" y="194.08205" style="fill: #4c72b0; stroke: #4c72b0"/>
     <use xlink:href="#md0fbe1d1f7" x="303.220366" y="217.869592" style="fill: #4c72b0; stroke: #4c72b0"/>
     <use xlink:href="#md0fbe1d1f7" x="369.491514" y="204.563137" style="fill: #4c72b0; stroke: #4c72b0"/>
     <use xlink:href="#md0fbe1d1f7" x="132.074497" y="146.446179" style="fill: #4c72b0; stroke: #4c72b0"/>
     <use xlink:href="#md0fbe1d1f7" x="260.583692" y="188.481188" style="fill: #4c72b0; stroke: #4c72b0"/>
     <use xlink:href="#md0fbe1d1f7" x="219.504538" y="180.323469" style="fill: #4c72b0; stroke: #4c72b0"/>
     <use xlink:href="#md0fbe1d1f7" x="405.749773" y="220.462671" style="fill: #4c72b0; stroke: #4c72b0"/>
     <use xlink:href="#md0fbe1d1f7" x="218.536767" y="180.20933" style="fill: #4c72b0; stroke: #4c72b0"/>
     <use xlink:href="#md0fbe1d1f7" x="156.000088" y="171.022081" style="fill: #4c72b0; stroke: #4c72b0"/>
     <use xlink:href="#md0fbe1d1f7" x="260.798355" y="185.140442" style="fill: #4c72b0; stroke: #4c72b0"/>
     <use xlink:href="#md0fbe1d1f7" x="218.76642" y="180.250723" style="fill: #4c72b0; stroke: #4c72b0"/>
     <use xlink:href="#md0fbe1d1f7" x="301.60829" y="220.909283" style="fill: #4c72b0; stroke: #4c72b0"/>
     <use xlink:href="#md0fbe1d1f7" x="209.133454" y="178.957678" style="fill: #4c72b0; stroke: #4c72b0"/>
     <use xlink:href="#md0fbe1d1f7" x="179.628712" y="174.43698" style="fill: #4c72b0; stroke: #4c72b0"/>
     <use xlink:href="#md0fbe1d1f7" x="191.300982" y="176.003602" style="fill: #4c72b0; stroke: #4c72b0"/>
     <use xlink:href="#md0fbe1d1f7" x="67.257727" y="31.418011" style="fill: #4c72b0; stroke: #4c72b0"/>
     <use xlink:href="#md0fbe1d1f7" x="192.281549" y="174.308261" style="fill: #4c72b0; stroke: #4c72b0"/>
     <use xlink:href="#md0fbe1d1f7" x="192.67474" y="176.237011" style="fill: #4c72b0; stroke: #4c72b0"/>
     <use xlink:href="#md0fbe1d1f7" x="233.029024" y="182.09029" style="fill: #4c72b0; stroke: #4c72b0"/>
     <use xlink:href="#md0fbe1d1f7" x="252.602637" y="185.299116" style="fill: #4c72b0; stroke: #4c72b0"/>
     <use xlink:href="#md0fbe1d1f7" x="247.126997" y="186.386768" style="fill: #4c72b0; stroke: #4c72b0"/>
     <use xlink:href="#md0fbe1d1f7" x="203.169512" y="177.703144" style="fill: #4c72b0; stroke: #4c72b0"/>
     <use xlink:href="#md0fbe1d1f7" x="137.880482" y="170.988957" style="fill: #4c72b0; stroke: #4c72b0"/>
     <use xlink:href="#md0fbe1d1f7" x="295.333793" y="179.881612" style="fill: #4c72b0; stroke: #4c72b0"/>
     <use xlink:href="#md0fbe1d1f7" x="273.64004" y="181.945118" style="fill: #4c72b0; stroke: #4c72b0"/>
     <use xlink:href="#md0fbe1d1f7" x="323.658329" y="209.130434" style="fill: #4c72b0; stroke: #4c72b0"/>
     <use xlink:href="#md0fbe1d1f7" x="265.616068" y="180.879454" style="fill: #4c72b0; stroke: #4c72b0"/>
     <use xlink:href="#md0fbe1d1f7" x="181.460555" y="177.306536" style="fill: #4c72b0; stroke: #4c72b0"/>
     <use xlink:href="#md0fbe1d1f7" x="211.514161" y="179.548997" style="fill: #4c72b0; stroke: #4c72b0"/>
     <use xlink:href="#md0fbe1d1f7" x="197.055751" y="177.730471" style="fill: #4c72b0; stroke: #4c72b0"/>
     <use xlink:href="#md0fbe1d1f7" x="241.544012" y="183.061896" style="fill: #4c72b0; stroke: #4c72b0"/>
     <use xlink:href="#md0fbe1d1f7" x="266.495971" y="187.017821" style="fill: #4c72b0; stroke: #4c72b0"/>
     <use xlink:href="#md0fbe1d1f7" x="239.436055" y="182.656806" style="fill: #4c72b0; stroke: #4c72b0"/>
     <use xlink:href="#md0fbe1d1f7" x="169.82576" y="161.3307" style="fill: #4c72b0; stroke: #4c72b0"/>
     <use xlink:href="#md0fbe1d1f7" x="202.97592" y="178.473491" style="fill: #4c72b0; stroke: #4c72b0"/>
     <use xlink:href="#md0fbe1d1f7" x="272.110373" y="172.386036" style="fill: #4c72b0; stroke: #4c72b0"/>
     <use xlink:href="#md0fbe1d1f7" x="264.899603" y="182.716588" style="fill: #4c72b0; stroke: #4c72b0"/>
     <use xlink:href="#md0fbe1d1f7" x="237.831313" y="182.235982" style="fill: #4c72b0; stroke: #4c72b0"/>
     <use xlink:href="#md0fbe1d1f7" x="314.287771" y="199.73291" style="fill: #4c72b0; stroke: #4c72b0"/>
     <use xlink:href="#md0fbe1d1f7" x="180.087286" y="174.196176" style="fill: #4c72b0; stroke: #4c72b0"/>
     <use xlink:href="#md0fbe1d1f7" x="240.42833" y="182.648045" style="fill: #4c72b0; stroke: #4c72b0"/>
     <use xlink:href="#md0fbe1d1f7" x="281.268198" y="186.689017" style="fill: #4c72b0; stroke: #4c72b0"/>
     <use xlink:href="#md0fbe1d1f7" x="196.616134" y="176.128542" style="fill: #4c72b0; stroke: #4c72b0"/>
     <use xlink:href="#md0fbe1d1f7" x="150.032158" y="152.210798" style="fill: #4c72b0; stroke: #4c72b0"/>
     <use xlink:href="#md0fbe1d1f7" x="176.98885" y="178.006837" style="fill: #4c72b0; stroke: #4c72b0"/>
     <use xlink:href="#md0fbe1d1f7" x="374.172148" y="211.454669" style="fill: #4c72b0; stroke: #4c72b0"/>
     <use xlink:href="#md0fbe1d1f7" x="71.980359" y="176.819882" style="fill: #4c72b0; stroke: #4c72b0"/>
     <use xlink:href="#md0fbe1d1f7" x="255.528091" y="184.649324" style="fill: #4c72b0; stroke: #4c72b0"/>
     <use xlink:href="#md0fbe1d1f7" x="200.869806" y="175.855051" style="fill: #4c72b0; stroke: #4c72b0"/>
     <use xlink:href="#md0fbe1d1f7" x="370.91886" y="159.382909" style="fill: #4c72b0; stroke: #4c72b0"/>
     <use xlink:href="#md0fbe1d1f7" x="148.589606" y="182.901475" style="fill: #4c72b0; stroke: #4c72b0"/>
     <use xlink:href="#md0fbe1d1f7" x="213.682895" y="179.508988" style="fill: #4c72b0; stroke: #4c72b0"/>
     <use xlink:href="#md0fbe1d1f7" x="110.96038" y="204.180428" style="fill: #4c72b0; stroke: #4c72b0"/>
     <use xlink:href="#md0fbe1d1f7" x="179.562721" y="173.933583" style="fill: #4c72b0; stroke: #4c72b0"/>
    </g>
   </g>
   <g id="line2d_11">
    <path d="M 67.257727 161.523084 
L 405.749773 203.309108 
L 405.749773 203.309108 
" clip-path="url(#p7add1c55c5)" style="fill: none; stroke: #808080; stroke-width: 1.5; stroke-linecap: round"/>
   </g>
   <g id="line2d_12">
    <path d="M 67.257727 159.666823 
L 405.749773 205.548034 
L 405.749773 205.548034 
" clip-path="url(#p7add1c55c5)" style="fill: none; stroke-dasharray: 5.55,2.4; stroke-dashoffset: 0; stroke: #1f77b4; stroke-width: 1.5"/>
   </g>
   <g id="patch_3">
    <path d="M 50.333125 233.619375 
L 50.333125 21.789375 
" style="fill: none; stroke: #cccccc; stroke-width: 1.25; stroke-linejoin: miter; stroke-linecap: square"/>
   </g>
   <g id="patch_4">
    <path d="M 422.674375 233.619375 
L 422.674375 21.789375 
" style="fill: none; stroke: #cccccc; stroke-width: 1.25; stroke-linejoin: miter; stroke-linecap: square"/>
   </g>
   <g id="patch_5">
    <path d="M 50.333125 233.619375 
L 422.674375 233.619375 
" style="fill: none; stroke: #cccccc; stroke-width: 1.25; stroke-linejoin: miter; stroke-linecap: square"/>
   </g>
   <g id="patch_6">
    <path d="M 50.333125 21.789375 
L 422.674375 21.789375 
" style="fill: none; stroke: #cccccc; stroke-width: 1.25; stroke-linejoin: miter; stroke-linecap: square"/>
   </g>
   <g id="text_13">
    <!-- A -->
    <g style="fill: #262626" transform="translate(232.501563 15.789375) scale(0.12 -0.12)">
     <defs>
      <path id="ArialMT-41" d="M -9 0 
L 1750 4581 
L 2403 4581 
L 4278 0 
L 3588 0 
L 3053 1388 
L 1138 1388 
L 634 0 
L -9 0 
z
M 1313 1881 
L 2866 1881 
L 2388 3150 
Q 2169 3728 2063 4100 
Q 1975 3659 1816 3225 
L 1313 1881 
z
" transform="scale(0.015625)"/>
     </defs>
     <use xlink:href="#ArialMT-41"/>
    </g>
   </g>
  </g>
  <g id="axes_2">
   <g id="patch_7">
    <path d="M 472.853125 233.619375 
L 845.194375 233.619375 
L 845.194375 21.789375 
L 472.853125 21.789375 
z
" style="fill: #ffffff"/>
   </g>
   <g id="matplotlib.axis_3">
    <g id="xtick_6">
     <g id="line2d_13">
      <path d="M 504.160778 233.619375 
L 504.160778 21.789375 
" clip-path="url(#p552764eb93)" style="fill: none; stroke: #cccccc; stroke-linecap: round"/>
     </g>
     <g id="text_14">
      <!-- −10 -->
      <g style="fill: #262626" transform="translate(494.831403 250.992969) scale(0.11 -0.11)">
       <use xlink:href="#ArialMT-2212"/>
       <use xlink:href="#ArialMT-31" x="58.398438"/>
       <use xlink:href="#ArialMT-30" x="114.013672"/>
      </g>
     </g>
    </g>
    <g id="xtick_7">
     <g id="line2d_14">
      <path d="M 574.662715 233.619375 
L 574.662715 21.789375 
" clip-path="url(#p552764eb93)" style="fill: none; stroke: #cccccc; stroke-linecap: round"/>
     </g>
     <g id="text_15">
      <!-- −5 -->
      <g style="fill: #262626" transform="translate(568.391856 250.992969) scale(0.11 -0.11)">
       <use xlink:href="#ArialMT-2212"/>
       <use xlink:href="#ArialMT-35" x="58.398438"/>
      </g>
     </g>
    </g>
    <g id="xtick_8">
     <g id="line2d_15">
      <path d="M 645.164653 233.619375 
L 645.164653 21.789375 
" clip-path="url(#p552764eb93)" style="fill: none; stroke: #cccccc; stroke-linecap: round"/>
     </g>
     <g id="text_16">
      <!-- 0 -->
      <g style="fill: #262626" transform="translate(642.106137 250.992969) scale(0.11 -0.11)">
       <use xlink:href="#ArialMT-30"/>
      </g>
     </g>
    </g>
    <g id="xtick_9">
     <g id="line2d_16">
      <path d="M 715.66659 233.619375 
L 715.66659 21.789375 
" clip-path="url(#p552764eb93)" style="fill: none; stroke: #cccccc; stroke-linecap: round"/>
     </g>
     <g id="text_17">
      <!-- 5 -->
      <g style="fill: #262626" transform="translate(712.608075 250.992969) scale(0.11 -0.11)">
       <use xlink:href="#ArialMT-35"/>
      </g>
     </g>
    </g>
    <g id="xtick_10">
     <g id="line2d_17">
      <path d="M 786.168528 233.619375 
L 786.168528 21.789375 
" clip-path="url(#p552764eb93)" style="fill: none; stroke: #cccccc; stroke-linecap: round"/>
     </g>
     <g id="text_18">
      <!-- 10 -->
      <g style="fill: #262626" transform="translate(780.051496 250.992969) scale(0.11 -0.11)">
       <use xlink:href="#ArialMT-31"/>
       <use xlink:href="#ArialMT-30" x="55.615234"/>
      </g>
     </g>
    </g>
    <g id="text_19">
     <!-- x -->
     <g style="fill: #262626" transform="translate(656.02375 265.768594) scale(0.12 -0.12)">
      <use xlink:href="#ArialMT-78"/>
     </g>
    </g>
   </g>
   <g id="matplotlib.axis_4">
    <g id="ytick_6">
     <g id="line2d_18">
      <path d="M 472.853125 211.15992 
L 845.194375 211.15992 
" clip-path="url(#p552764eb93)" style="fill: none; stroke: #cccccc; stroke-linecap: round"/>
     </g>
     <g id="text_20">
      <!-- −5 -->
      <g style="fill: #262626" transform="translate(450.811406 215.096717) scale(0.11 -0.11)">
       <use xlink:href="#ArialMT-2212"/>
       <use xlink:href="#ArialMT-35" x="58.398438"/>
      </g>
     </g>
    </g>
    <g id="ytick_7">
     <g id="line2d_19">
      <path d="M 472.853125 186.576804 
L 845.194375 186.576804 
" clip-path="url(#p552764eb93)" style="fill: none; stroke: #cccccc; stroke-linecap: round"/>
     </g>
     <g id="text_21">
      <!-- −4 -->
      <g style="fill: #262626" transform="translate(450.811406 190.513601) scale(0.11 -0.11)">
       <defs>
        <path id="ArialMT-34" d="M 2069 0 
L 2069 1097 
L 81 1097 
L 81 1613 
L 2172 4581 
L 2631 4581 
L 2631 1613 
L 3250 1613 
L 3250 1097 
L 2631 1097 
L 2631 0 
L 2069 0 
z
M 2069 1613 
L 2069 3678 
L 634 1613 
L 2069 1613 
z
" transform="scale(0.015625)"/>
       </defs>
       <use xlink:href="#ArialMT-2212"/>
       <use xlink:href="#ArialMT-34" x="58.398438"/>
      </g>
     </g>
    </g>
    <g id="ytick_8">
     <g id="line2d_20">
      <path d="M 472.853125 161.993688 
L 845.194375 161.993688 
" clip-path="url(#p552764eb93)" style="fill: none; stroke: #cccccc; stroke-linecap: round"/>
     </g>
     <g id="text_22">
      <!-- −3 -->
      <g style="fill: #262626" transform="translate(450.811406 165.930485) scale(0.11 -0.11)">
       <defs>
        <path id="ArialMT-33" d="M 269 1209 
L 831 1284 
Q 928 806 1161 595 
Q 1394 384 1728 384 
Q 2125 384 2398 659 
Q 2672 934 2672 1341 
Q 2672 1728 2419 1979 
Q 2166 2231 1775 2231 
Q 1616 2231 1378 2169 
L 1441 2663 
Q 1497 2656 1531 2656 
Q 1891 2656 2178 2843 
Q 2466 3031 2466 3422 
Q 2466 3731 2256 3934 
Q 2047 4138 1716 4138 
Q 1388 4138 1169 3931 
Q 950 3725 888 3313 
L 325 3413 
Q 428 3978 793 4289 
Q 1159 4600 1703 4600 
Q 2078 4600 2393 4439 
Q 2709 4278 2876 4000 
Q 3044 3722 3044 3409 
Q 3044 3113 2884 2869 
Q 2725 2625 2413 2481 
Q 2819 2388 3044 2092 
Q 3269 1797 3269 1353 
Q 3269 753 2831 336 
Q 2394 -81 1725 -81 
Q 1122 -81 723 278 
Q 325 638 269 1209 
z
" transform="scale(0.015625)"/>
       </defs>
       <use xlink:href="#ArialMT-2212"/>
       <use xlink:href="#ArialMT-33" x="58.398438"/>
      </g>
     </g>
    </g>
    <g id="ytick_9">
     <g id="line2d_21">
      <path d="M 472.853125 137.410572 
L 845.194375 137.410572 
" clip-path="url(#p552764eb93)" style="fill: none; stroke: #cccccc; stroke-linecap: round"/>
     </g>
     <g id="text_23">
      <!-- −2 -->
      <g style="fill: #262626" transform="translate(450.811406 141.347369) scale(0.11 -0.11)">
       <defs>
        <path id="ArialMT-32" d="M 3222 541 
L 3222 0 
L 194 0 
Q 188 203 259 391 
Q 375 700 629 1000 
Q 884 1300 1366 1694 
Q 2113 2306 2375 2664 
Q 2638 3022 2638 3341 
Q 2638 3675 2398 3904 
Q 2159 4134 1775 4134 
Q 1369 4134 1125 3890 
Q 881 3647 878 3216 
L 300 3275 
Q 359 3922 746 4261 
Q 1134 4600 1788 4600 
Q 2447 4600 2831 4234 
Q 3216 3869 3216 3328 
Q 3216 3053 3103 2787 
Q 2991 2522 2730 2228 
Q 2469 1934 1863 1422 
Q 1356 997 1212 845 
Q 1069 694 975 541 
L 3222 541 
z
" transform="scale(0.015625)"/>
       </defs>
       <use xlink:href="#ArialMT-2212"/>
       <use xlink:href="#ArialMT-32" x="58.398438"/>
      </g>
     </g>
    </g>
    <g id="ytick_10">
     <g id="line2d_22">
      <path d="M 472.853125 112.827456 
L 845.194375 112.827456 
" clip-path="url(#p552764eb93)" style="fill: none; stroke: #cccccc; stroke-linecap: round"/>
     </g>
     <g id="text_24">
      <!-- −1 -->
      <g style="fill: #262626" transform="translate(450.811406 116.764253) scale(0.11 -0.11)">
       <use xlink:href="#ArialMT-2212"/>
       <use xlink:href="#ArialMT-31" x="58.398438"/>
      </g>
     </g>
    </g>
    <g id="ytick_11">
     <g id="line2d_23">
      <path d="M 472.853125 88.24434 
L 845.194375 88.24434 
" clip-path="url(#p552764eb93)" style="fill: none; stroke: #cccccc; stroke-linecap: round"/>
     </g>
     <g id="text_25">
      <!-- 0 -->
      <g style="fill: #262626" transform="translate(457.236094 92.181136) scale(0.11 -0.11)">
       <use xlink:href="#ArialMT-30"/>
      </g>
     </g>
    </g>
    <g id="ytick_12">
     <g id="line2d_24">
      <path d="M 472.853125 63.661223 
L 845.194375 63.661223 
" clip-path="url(#p552764eb93)" style="fill: none; stroke: #cccccc; stroke-linecap: round"/>
     </g>
     <g id="text_26">
      <!-- 1 -->
      <g style="fill: #262626" transform="translate(457.236094 67.59802) scale(0.11 -0.11)">
       <use xlink:href="#ArialMT-31"/>
      </g>
     </g>
    </g>
    <g id="ytick_13">
     <g id="line2d_25">
      <path d="M 472.853125 39.078107 
L 845.194375 39.078107 
" clip-path="url(#p552764eb93)" style="fill: none; stroke: #cccccc; stroke-linecap: round"/>
     </g>
     <g id="text_27">
      <!-- 2 -->
      <g style="fill: #262626" transform="translate(457.236094 43.014904) scale(0.11 -0.11)">
       <use xlink:href="#ArialMT-32"/>
      </g>
     </g>
    </g>
    <g id="text_28">
     <!-- Standardized residuals -->
     <g style="fill: #262626" transform="translate(444.426406 188.7375) rotate(-90) scale(0.12 -0.12)">
      <defs>
       <path id="ArialMT-53" d="M 288 1472 
L 859 1522 
Q 900 1178 1048 958 
Q 1197 738 1509 602 
Q 1822 466 2213 466 
Q 2559 466 2825 569 
Q 3091 672 3220 851 
Q 3350 1031 3350 1244 
Q 3350 1459 3225 1620 
Q 3100 1781 2813 1891 
Q 2628 1963 1997 2114 
Q 1366 2266 1113 2400 
Q 784 2572 623 2826 
Q 463 3081 463 3397 
Q 463 3744 659 4045 
Q 856 4347 1234 4503 
Q 1613 4659 2075 4659 
Q 2584 4659 2973 4495 
Q 3363 4331 3572 4012 
Q 3781 3694 3797 3291 
L 3216 3247 
Q 3169 3681 2898 3903 
Q 2628 4125 2100 4125 
Q 1550 4125 1298 3923 
Q 1047 3722 1047 3438 
Q 1047 3191 1225 3031 
Q 1400 2872 2139 2705 
Q 2878 2538 3153 2413 
Q 3553 2228 3743 1945 
Q 3934 1663 3934 1294 
Q 3934 928 3725 604 
Q 3516 281 3123 101 
Q 2731 -78 2241 -78 
Q 1619 -78 1198 103 
Q 778 284 539 648 
Q 300 1013 288 1472 
z
" transform="scale(0.015625)"/>
       <path id="ArialMT-74" d="M 1650 503 
L 1731 6 
Q 1494 -44 1306 -44 
Q 1000 -44 831 53 
Q 663 150 594 308 
Q 525 466 525 972 
L 525 2881 
L 113 2881 
L 113 3319 
L 525 3319 
L 525 4141 
L 1084 4478 
L 1084 3319 
L 1650 3319 
L 1650 2881 
L 1084 2881 
L 1084 941 
Q 1084 700 1114 631 
Q 1144 563 1211 522 
Q 1278 481 1403 481 
Q 1497 481 1650 503 
z
" transform="scale(0.015625)"/>
       <path id="ArialMT-61" d="M 2588 409 
Q 2275 144 1986 34 
Q 1697 -75 1366 -75 
Q 819 -75 525 192 
Q 231 459 231 875 
Q 231 1119 342 1320 
Q 453 1522 633 1644 
Q 813 1766 1038 1828 
Q 1203 1872 1538 1913 
Q 2219 1994 2541 2106 
Q 2544 2222 2544 2253 
Q 2544 2597 2384 2738 
Q 2169 2928 1744 2928 
Q 1347 2928 1158 2789 
Q 969 2650 878 2297 
L 328 2372 
Q 403 2725 575 2942 
Q 747 3159 1072 3276 
Q 1397 3394 1825 3394 
Q 2250 3394 2515 3294 
Q 2781 3194 2906 3042 
Q 3031 2891 3081 2659 
Q 3109 2516 3109 2141 
L 3109 1391 
Q 3109 606 3145 398 
Q 3181 191 3288 0 
L 2700 0 
Q 2613 175 2588 409 
z
M 2541 1666 
Q 2234 1541 1622 1453 
Q 1275 1403 1131 1340 
Q 988 1278 909 1158 
Q 831 1038 831 891 
Q 831 666 1001 516 
Q 1172 366 1500 366 
Q 1825 366 2078 508 
Q 2331 650 2450 897 
Q 2541 1088 2541 1459 
L 2541 1666 
z
" transform="scale(0.015625)"/>
       <path id="ArialMT-6e" d="M 422 0 
L 422 3319 
L 928 3319 
L 928 2847 
Q 1294 3394 1984 3394 
Q 2284 3394 2536 3286 
Q 2788 3178 2913 3003 
Q 3038 2828 3088 2588 
Q 3119 2431 3119 2041 
L 3119 0 
L 2556 0 
L 2556 2019 
Q 2556 2363 2490 2533 
Q 2425 2703 2258 2804 
Q 2091 2906 1866 2906 
Q 1506 2906 1245 2678 
Q 984 2450 984 1813 
L 984 0 
L 422 0 
z
" transform="scale(0.015625)"/>
       <path id="ArialMT-64" d="M 2575 0 
L 2575 419 
Q 2259 -75 1647 -75 
Q 1250 -75 917 144 
Q 584 363 401 755 
Q 219 1147 219 1656 
Q 219 2153 384 2558 
Q 550 2963 881 3178 
Q 1213 3394 1622 3394 
Q 1922 3394 2156 3267 
Q 2391 3141 2538 2938 
L 2538 4581 
L 3097 4581 
L 3097 0 
L 2575 0 
z
M 797 1656 
Q 797 1019 1065 703 
Q 1334 388 1700 388 
Q 2069 388 2326 689 
Q 2584 991 2584 1609 
Q 2584 2291 2321 2609 
Q 2059 2928 1675 2928 
Q 1300 2928 1048 2622 
Q 797 2316 797 1656 
z
" transform="scale(0.015625)"/>
       <path id="ArialMT-72" d="M 416 0 
L 416 3319 
L 922 3319 
L 922 2816 
Q 1116 3169 1280 3281 
Q 1444 3394 1641 3394 
Q 1925 3394 2219 3213 
L 2025 2691 
Q 1819 2813 1613 2813 
Q 1428 2813 1281 2702 
Q 1134 2591 1072 2394 
Q 978 2094 978 1738 
L 978 0 
L 416 0 
z
" transform="scale(0.015625)"/>
       <path id="ArialMT-69" d="M 425 3934 
L 425 4581 
L 988 4581 
L 988 3934 
L 425 3934 
z
M 425 0 
L 425 3319 
L 988 3319 
L 988 0 
L 425 0 
z
" transform="scale(0.015625)"/>
       <path id="ArialMT-7a" d="M 125 0 
L 125 456 
L 2238 2881 
Q 1878 2863 1603 2863 
L 250 2863 
L 250 3319 
L 2963 3319 
L 2963 2947 
L 1166 841 
L 819 456 
Q 1197 484 1528 484 
L 3063 484 
L 3063 0 
L 125 0 
z
" transform="scale(0.015625)"/>
       <path id="ArialMT-65" d="M 2694 1069 
L 3275 997 
Q 3138 488 2766 206 
Q 2394 -75 1816 -75 
Q 1088 -75 661 373 
Q 234 822 234 1631 
Q 234 2469 665 2931 
Q 1097 3394 1784 3394 
Q 2450 3394 2872 2941 
Q 3294 2488 3294 1666 
Q 3294 1616 3291 1516 
L 816 1516 
Q 847 969 1125 678 
Q 1403 388 1819 388 
Q 2128 388 2347 550 
Q 2566 713 2694 1069 
z
M 847 1978 
L 2700 1978 
Q 2663 2397 2488 2606 
Q 2219 2931 1791 2931 
Q 1403 2931 1139 2672 
Q 875 2413 847 1978 
z
" transform="scale(0.015625)"/>
       <path id="ArialMT-20" transform="scale(0.015625)"/>
       <path id="ArialMT-73" d="M 197 991 
L 753 1078 
Q 800 744 1014 566 
Q 1228 388 1613 388 
Q 2000 388 2187 545 
Q 2375 703 2375 916 
Q 2375 1106 2209 1216 
Q 2094 1291 1634 1406 
Q 1016 1563 777 1677 
Q 538 1791 414 1992 
Q 291 2194 291 2438 
Q 291 2659 392 2848 
Q 494 3038 669 3163 
Q 800 3259 1026 3326 
Q 1253 3394 1513 3394 
Q 1903 3394 2198 3281 
Q 2494 3169 2634 2976 
Q 2775 2784 2828 2463 
L 2278 2388 
Q 2241 2644 2061 2787 
Q 1881 2931 1553 2931 
Q 1166 2931 1000 2803 
Q 834 2675 834 2503 
Q 834 2394 903 2306 
Q 972 2216 1119 2156 
Q 1203 2125 1616 2013 
Q 2213 1853 2448 1751 
Q 2684 1650 2818 1456 
Q 2953 1263 2953 975 
Q 2953 694 2789 445 
Q 2625 197 2315 61 
Q 2006 -75 1616 -75 
Q 969 -75 630 194 
Q 291 463 197 991 
z
" transform="scale(0.015625)"/>
       <path id="ArialMT-75" d="M 2597 0 
L 2597 488 
Q 2209 -75 1544 -75 
Q 1250 -75 995 37 
Q 741 150 617 320 
Q 494 491 444 738 
Q 409 903 409 1263 
L 409 3319 
L 972 3319 
L 972 1478 
Q 972 1038 1006 884 
Q 1059 663 1231 536 
Q 1403 409 1656 409 
Q 1909 409 2131 539 
Q 2353 669 2445 892 
Q 2538 1116 2538 1541 
L 2538 3319 
L 3100 3319 
L 3100 0 
L 2597 0 
z
" transform="scale(0.015625)"/>
       <path id="ArialMT-6c" d="M 409 0 
L 409 4581 
L 972 4581 
L 972 0 
L 409 0 
z
" transform="scale(0.015625)"/>
      </defs>
      <use xlink:href="#ArialMT-53"/>
      <use xlink:href="#ArialMT-74" x="66.699219"/>
      <use xlink:href="#ArialMT-61" x="94.482422"/>
      <use xlink:href="#ArialMT-6e" x="150.097656"/>
      <use xlink:href="#ArialMT-64" x="205.712891"/>
      <use xlink:href="#ArialMT-61" x="261.328125"/>
      <use xlink:href="#ArialMT-72" x="316.943359"/>
      <use xlink:href="#ArialMT-64" x="350.244141"/>
      <use xlink:href="#ArialMT-69" x="405.859375"/>
      <use xlink:href="#ArialMT-7a" x="428.076172"/>
      <use xlink:href="#ArialMT-65" x="478.076172"/>
      <use xlink:href="#ArialMT-64" x="533.691406"/>
      <use xlink:href="#ArialMT-20" x="589.306641"/>
      <use xlink:href="#ArialMT-72" x="617.089844"/>
      <use xlink:href="#ArialMT-65" x="650.390625"/>
      <use xlink:href="#ArialMT-73" x="706.005859"/>
      <use xlink:href="#ArialMT-69" x="756.005859"/>
      <use xlink:href="#ArialMT-64" x="778.222656"/>
      <use xlink:href="#ArialMT-75" x="833.837891"/>
      <use xlink:href="#ArialMT-61" x="889.453125"/>
      <use xlink:href="#ArialMT-6c" x="945.068359"/>
      <use xlink:href="#ArialMT-73" x="967.285156"/>
     </g>
    </g>
   </g>
   <g id="PathCollection_2">
    <g clip-path="url(#p552764eb93)">
     <use xlink:href="#md0fbe1d1f7" x="565.226854" y="89.287736" style="fill: #4c72b0; stroke: #4c72b0"/>
     <use xlink:href="#md0fbe1d1f7" x="672.259901" y="86.434156" style="fill: #4c72b0; stroke: #4c72b0"/>
     <use xlink:href="#md0fbe1d1f7" x="750.674593" y="60.511584" style="fill: #4c72b0; stroke: #4c72b0"/>
     <use xlink:href="#md0fbe1d1f7" x="620.109512" y="76.91992" style="fill: #4c72b0; stroke: #4c72b0"/>
     <use xlink:href="#md0fbe1d1f7" x="589.642012" y="58.907813" style="fill: #4c72b0; stroke: #4c72b0"/>
     <use xlink:href="#md0fbe1d1f7" x="612.77332" y="91.570643" style="fill: #4c72b0; stroke: #4c72b0"/>
     <use xlink:href="#md0fbe1d1f7" x="640.99314" y="84.634926" style="fill: #4c72b0; stroke: #4c72b0"/>
     <use xlink:href="#md0fbe1d1f7" x="620.194735" y="80.945167" style="fill: #4c72b0; stroke: #4c72b0"/>
     <use xlink:href="#md0fbe1d1f7" x="593.308852" y="83.098446" style="fill: #4c72b0; stroke: #4c72b0"/>
     <use xlink:href="#md0fbe1d1f7" x="561.694597" y="58.491645" style="fill: #4c72b0; stroke: #4c72b0"/>
     <use xlink:href="#md0fbe1d1f7" x="662.007152" y="80.460086" style="fill: #4c72b0; stroke: #4c72b0"/>
     <use xlink:href="#md0fbe1d1f7" x="603.574131" y="105.148774" style="fill: #4c72b0; stroke: #4c72b0"/>
     <use xlink:href="#md0fbe1d1f7" x="543.600611" y="94.499182" style="fill: #4c72b0; stroke: #4c72b0"/>
     <use xlink:href="#md0fbe1d1f7" x="699.712221" y="95.62317" style="fill: #4c72b0; stroke: #4c72b0"/>
     <use xlink:href="#md0fbe1d1f7" x="572.690964" y="98.380754" style="fill: #4c72b0; stroke: #4c72b0"/>
     <use xlink:href="#md0fbe1d1f7" x="638.749946" y="86.217578" style="fill: #4c72b0; stroke: #4c72b0"/>
     <use xlink:href="#md0fbe1d1f7" x="679.851818" y="90.937319" style="fill: #4c72b0; stroke: #4c72b0"/>
     <use xlink:href="#md0fbe1d1f7" x="675.104866" y="73.036682" style="fill: #4c72b0; stroke: #4c72b0"/>
     <use xlink:href="#md0fbe1d1f7" x="735.62208" y="102.150284" style="fill: #4c72b0; stroke: #4c72b0"/>
     <use xlink:href="#md0fbe1d1f7" x="667.44231" y="81.90498" style="fill: #4c72b0; stroke: #4c72b0"/>
     <use xlink:href="#md0fbe1d1f7" x="616.394067" y="60.156898" style="fill: #4c72b0; stroke: #4c72b0"/>
     <use xlink:href="#md0fbe1d1f7" x="640.374216" y="88.190101" style="fill: #4c72b0; stroke: #4c72b0"/>
     <use xlink:href="#md0fbe1d1f7" x="578.016728" y="61.381796" style="fill: #4c72b0; stroke: #4c72b0"/>
     <use xlink:href="#md0fbe1d1f7" x="637.361681" y="86.752258" style="fill: #4c72b0; stroke: #4c72b0"/>
     <use xlink:href="#md0fbe1d1f7" x="685.392656" y="68.386011" style="fill: #4c72b0; stroke: #4c72b0"/>
     <use xlink:href="#md0fbe1d1f7" x="709.703548" y="85.163067" style="fill: #4c72b0; stroke: #4c72b0"/>
     <use xlink:href="#md0fbe1d1f7" x="527.472913" y="93.68424" style="fill: #4c72b0; stroke: #4c72b0"/>
     <use xlink:href="#md0fbe1d1f7" x="679.1969" y="93.057951" style="fill: #4c72b0; stroke: #4c72b0"/>
     <use xlink:href="#md0fbe1d1f7" x="623.275728" y="85.749366" style="fill: #4c72b0; stroke: #4c72b0"/>
     <use xlink:href="#md0fbe1d1f7" x="813.994918" y="62.152096" style="fill: #4c72b0; stroke: #4c72b0"/>
     <use xlink:href="#md0fbe1d1f7" x="754.508287" y="131.043876" style="fill: #4c72b0; stroke: #4c72b0"/>
     <use xlink:href="#md0fbe1d1f7" x="599.587605" y="96.790999" style="fill: #4c72b0; stroke: #4c72b0"/>
     <use xlink:href="#md0fbe1d1f7" x="579.672778" y="104.763717" style="fill: #4c72b0; stroke: #4c72b0"/>
     <use xlink:href="#md0fbe1d1f7" x="528.485628" y="141.740779" style="fill: #4c72b0; stroke: #4c72b0"/>
     <use xlink:href="#md0fbe1d1f7" x="669.853903" y="87.537013" style="fill: #4c72b0; stroke: #4c72b0"/>
     <use xlink:href="#md0fbe1d1f7" x="635.170544" y="80.641876" style="fill: #4c72b0; stroke: #4c72b0"/>
     <use xlink:href="#md0fbe1d1f7" x="681.901928" y="77.79756" style="fill: #4c72b0; stroke: #4c72b0"/>
     <use xlink:href="#md0fbe1d1f7" x="643.691101" y="88.858057" style="fill: #4c72b0; stroke: #4c72b0"/>
     <use xlink:href="#md0fbe1d1f7" x="522.220276" y="55.876438" style="fill: #4c72b0; stroke: #4c72b0"/>
     <use xlink:href="#md0fbe1d1f7" x="588.822404" y="66.586648" style="fill: #4c72b0; stroke: #4c72b0"/>
     <use xlink:href="#md0fbe1d1f7" x="553.260412" y="36.218704" style="fill: #4c72b0; stroke: #4c72b0"/>
     <use xlink:href="#md0fbe1d1f7" x="657.7214" y="85.973216" style="fill: #4c72b0; stroke: #4c72b0"/>
     <use xlink:href="#md0fbe1d1f7" x="621.588638" y="101.329305" style="fill: #4c72b0; stroke: #4c72b0"/>
     <use xlink:href="#md0fbe1d1f7" x="623.589147" y="88.657537" style="fill: #4c72b0; stroke: #4c72b0"/>
     <use xlink:href="#md0fbe1d1f7" x="621.729416" y="94.576623" style="fill: #4c72b0; stroke: #4c72b0"/>
     <use xlink:href="#md0fbe1d1f7" x="783.556243" y="63.249105" style="fill: #4c72b0; stroke: #4c72b0"/>
     <use xlink:href="#md0fbe1d1f7" x="695.872642" y="109.28158" style="fill: #4c72b0; stroke: #4c72b0"/>
     <use xlink:href="#md0fbe1d1f7" x="725.740366" y="141.794481" style="fill: #4c72b0; stroke: #4c72b0"/>
     <use xlink:href="#md0fbe1d1f7" x="792.011514" y="92.647402" style="fill: #4c72b0; stroke: #4c72b0"/>
     <use xlink:href="#md0fbe1d1f7" x="554.594497" y="128.203332" style="fill: #4c72b0; stroke: #4c72b0"/>
     <use xlink:href="#md0fbe1d1f7" x="683.103692" y="99.572995" style="fill: #4c72b0; stroke: #4c72b0"/>
     <use xlink:href="#md0fbe1d1f7" x="642.024538" y="87.129898" style="fill: #4c72b0; stroke: #4c72b0"/>
     <use xlink:href="#md0fbe1d1f7" x="828.269773" y="101.645576" style="fill: #4c72b0; stroke: #4c72b0"/>
     <use xlink:href="#md0fbe1d1f7" x="641.056767" y="86.710996" style="fill: #4c72b0; stroke: #4c72b0"/>
     <use xlink:href="#md0fbe1d1f7" x="578.520088" y="89.905998" style="fill: #4c72b0; stroke: #4c72b0"/>
     <use xlink:href="#md0fbe1d1f7" x="683.318355" y="84.963849" style="fill: #4c72b0; stroke: #4c72b0"/>
     <use xlink:href="#md0fbe1d1f7" x="641.28642" y="86.164515" style="fill: #4c72b0; stroke: #4c72b0"/>
     <use xlink:href="#md0fbe1d1f7" x="724.12829" y="149.678858" style="fill: #4c72b0; stroke: #4c72b0"/>
     <use xlink:href="#md0fbe1d1f7" x="631.653454" y="87.510897" style="fill: #4c72b0; stroke: #4c72b0"/>
     <use xlink:href="#md0fbe1d1f7" x="602.148712" y="90.007665" style="fill: #4c72b0; stroke: #4c72b0"/>
     <use xlink:href="#md0fbe1d1f7" x="613.820982" y="90.745737" style="fill: #4c72b0; stroke: #4c72b0"/>
     <use xlink:href="#md0fbe1d1f7" x="489.777727" y="223.990739" style="fill: #4c72b0; stroke: #4c72b0"/>
     <use xlink:href="#md0fbe1d1f7" x="614.801549" y="100.72828" style="fill: #4c72b0; stroke: #4c72b0"/>
     <use xlink:href="#md0fbe1d1f7" x="615.19474" y="90.601432" style="fill: #4c72b0; stroke: #4c72b0"/>
     <use xlink:href="#md0fbe1d1f7" x="655.549024" y="87.507321" style="fill: #4c72b0; stroke: #4c72b0"/>
     <use xlink:href="#md0fbe1d1f7" x="675.122637" y="91.046656" style="fill: #4c72b0; stroke: #4c72b0"/>
     <use xlink:href="#md0fbe1d1f7" x="669.646997" y="103.995951" style="fill: #4c72b0; stroke: #4c72b0"/>
     <use xlink:href="#md0fbe1d1f7" x="625.689512" y="91.504551" style="fill: #4c72b0; stroke: #4c72b0"/>
     <use xlink:href="#md0fbe1d1f7" x="560.400482" y="84.85003" style="fill: #4c72b0; stroke: #4c72b0"/>
     <use xlink:href="#md0fbe1d1f7" x="717.853793" y="64.018007" style="fill: #4c72b0; stroke: #4c72b0"/>
     <use xlink:href="#md0fbe1d1f7" x="696.16004" y="69.856451" style="fill: #4c72b0; stroke: #4c72b0"/>
     <use xlink:href="#md0fbe1d1f7" x="746.178329" y="112.206363" style="fill: #4c72b0; stroke: #4c72b0"/>
     <use xlink:href="#md0fbe1d1f7" x="688.136068" y="66.502819" style="fill: #4c72b0; stroke: #4c72b0"/>
     <use xlink:href="#md0fbe1d1f7" x="603.980555" y="79.619976" style="fill: #4c72b0; stroke: #4c72b0"/>
     <use xlink:href="#md0fbe1d1f7" x="634.034161" y="83.374991" style="fill: #4c72b0; stroke: #4c72b0"/>
     <use xlink:href="#md0fbe1d1f7" x="619.575751" y="85.223317" style="fill: #4c72b0; stroke: #4c72b0"/>
     <use xlink:href="#md0fbe1d1f7" x="664.064012" y="86.247428" style="fill: #4c72b0; stroke: #4c72b0"/>
     <use xlink:href="#md0fbe1d1f7" x="689.015971" y="89.539998" style="fill: #4c72b0; stroke: #4c72b0"/>
     <use xlink:href="#md0fbe1d1f7" x="661.956055" y="84.82165" style="fill: #4c72b0; stroke: #4c72b0"/>
     <use xlink:href="#md0fbe1d1f7" x="592.34576" y="126.347746" style="fill: #4c72b0; stroke: #4c72b0"/>
     <use xlink:href="#md0fbe1d1f7" x="625.49592" y="84.810046" style="fill: #4c72b0; stroke: #4c72b0"/>
     <use xlink:href="#md0fbe1d1f7" x="694.630373" y="38.163223" style="fill: #4c72b0; stroke: #4c72b0"/>
     <use xlink:href="#md0fbe1d1f7" x="687.419603" y="73.671102" style="fill: #4c72b0; stroke: #4c72b0"/>
     <use xlink:href="#md0fbe1d1f7" x="660.351313" y="82.245844" style="fill: #4c72b0; stroke: #4c72b0"/>
     <use xlink:href="#md0fbe1d1f7" x="736.807771" y="100.063626" style="fill: #4c72b0; stroke: #4c72b0"/>
     <use xlink:href="#md0fbe1d1f7" x="602.607286" y="91.19729" style="fill: #4c72b0; stroke: #4c72b0"/>
     <use xlink:href="#md0fbe1d1f7" x="662.94833" y="83.683998" style="fill: #4c72b0; stroke: #4c72b0"/>
     <use xlink:href="#md0fbe1d1f7" x="703.788198" y="82.667894" style="fill: #4c72b0; stroke: #4c72b0"/>
     <use xlink:href="#md0fbe1d1f7" x="619.136134" y="95.019361" style="fill: #4c72b0; stroke: #4c72b0"/>
     <use xlink:href="#md0fbe1d1f7" x="572.552158" y="130.540689" style="fill: #4c72b0; stroke: #4c72b0"/>
     <use xlink:href="#md0fbe1d1f7" x="599.50885" y="75.759253" style="fill: #4c72b0; stroke: #4c72b0"/>
     <use xlink:href="#md0fbe1d1f7" x="796.692148" y="99.305447" style="fill: #4c72b0; stroke: #4c72b0"/>
     <use xlink:href="#md0fbe1d1f7" x="494.500359" y="70.21826" style="fill: #4c72b0; stroke: #4c72b0"/>
     <use xlink:href="#md0fbe1d1f7" x="678.048091" y="85.555427" style="fill: #4c72b0; stroke: #4c72b0"/>
     <use xlink:href="#md0fbe1d1f7" x="623.389806" y="102.765129" style="fill: #4c72b0; stroke: #4c72b0"/>
     <use xlink:href="#md0fbe1d1f7" x="793.43886" y="42.256006" style="fill: #4c72b0; stroke: #4c72b0"/>
     <use xlink:href="#md0fbe1d1f7" x="571.109606" y="61.12904" style="fill: #4c72b0; stroke: #4c72b0"/>
     <use xlink:href="#md0fbe1d1f7" x="636.202895" y="88.339566" style="fill: #4c72b0; stroke: #4c72b0"/>
     <use xlink:href="#md0fbe1d1f7" x="533.48038" y="31.418011" style="fill: #4c72b0; stroke: #4c72b0"/>
     <use xlink:href="#md0fbe1d1f7" x="602.082721" y="91.892237" style="fill: #4c72b0; stroke: #4c72b0"/>
    </g>
   </g>
   <g id="line2d_26">
    <path d="M 472.853125 88.24434 
L 845.194375 88.24434 
" clip-path="url(#p552764eb93)" style="fill: none; stroke: #808080; stroke-linecap: round"/>
   </g>
   <g id="patch_8">
    <path d="M 472.853125 233.619375 
L 472.853125 21.789375 
" style="fill: none; stroke: #cccccc; stroke-width: 1.25; stroke-linejoin: miter; stroke-linecap: square"/>
   </g>
   <g id="patch_9">
    <path d="M 845.194375 233.619375 
L 845.194375 21.789375 
" style="fill: none; stroke: #cccccc; stroke-width: 1.25; stroke-linejoin: miter; stroke-linecap: square"/>
   </g>
   <g id="patch_10">
    <path d="M 472.853125 233.619375 
L 845.194375 233.619375 
" style="fill: none; stroke: #cccccc; stroke-width: 1.25; stroke-linejoin: miter; stroke-linecap: square"/>
   </g>
   <g id="patch_11">
    <path d="M 472.853125 21.789375 
L 845.194375 21.789375 
" style="fill: none; stroke: #cccccc; stroke-width: 1.25; stroke-linejoin: miter; stroke-linecap: square"/>
   </g>
   <g id="text_29">
    <!-- B -->
    <g style="fill: #262626" transform="translate(655.021562 15.789375) scale(0.12 -0.12)">
     <defs>
      <path id="ArialMT-42" d="M 469 0 
L 469 4581 
L 2188 4581 
Q 2713 4581 3030 4442 
Q 3347 4303 3526 4014 
Q 3706 3725 3706 3409 
Q 3706 3116 3547 2856 
Q 3388 2597 3066 2438 
Q 3481 2316 3704 2022 
Q 3928 1728 3928 1328 
Q 3928 1006 3792 729 
Q 3656 453 3456 303 
Q 3256 153 2954 76 
Q 2653 0 2216 0 
L 469 0 
z
M 1075 2656 
L 2066 2656 
Q 2469 2656 2644 2709 
Q 2875 2778 2992 2937 
Q 3109 3097 3109 3338 
Q 3109 3566 3000 3739 
Q 2891 3913 2687 3977 
Q 2484 4041 1991 4041 
L 1075 4041 
L 1075 2656 
z
M 1075 541 
L 2216 541 
Q 2509 541 2628 563 
Q 2838 600 2978 687 
Q 3119 775 3209 942 
Q 3300 1109 3300 1328 
Q 3300 1584 3169 1773 
Q 3038 1963 2805 2039 
Q 2572 2116 2134 2116 
L 1075 2116 
L 1075 541 
z
" transform="scale(0.015625)"/>
     </defs>
     <use xlink:href="#ArialMT-42"/>
    </g>
   </g>
  </g>
 </g>
 <defs>
  <clipPath id="p7add1c55c5">
   <rect x="50.333125" y="21.789375" width="372.34125" height="211.83"/>
  </clipPath>
  <clipPath id="p552764eb93">
   <rect x="472.853125" y="21.789375" width="372.34125" height="211.83"/>
  </clipPath>
 </defs>
</svg>
