<?xml version="1.0" encoding="utf-8" standalone="no"?>
<!DOCTYPE svg PUBLIC "-//W3C//DTD SVG 1.1//EN"
  "http://www.w3.org/Graphics/SVG/1.1/DTD/svg11.dtd">
<svg xmlns:xlink="http://www.w3.org/1999/xlink" width="618.889697pt" height="275.44125pt" viewBox="0 0 618.889697 275.44125" xmlns="http://www.w3.org/2000/svg" version="1.1">
 <metadata>
  <rdf:RDF xmlns:dc="http://purl.org/dc/elements/1.1/" xmlns:cc="http://creativecommons.org/ns#" xmlns:rdf="http://www.w3.org/1999/02/22-rdf-syntax-ns#">
   <cc:Work>
    <dc:type rdf:resource="http://purl.org/dc/dcmitype/StillImage"/>
    <dc:date>2025-10-25T11:38:39.449600</dc:date>
    <dc:format>image/svg+xml</dc:format>
    <dc:creator>
     <cc:Agent>
      <dc:title>Matplotlib v3.8.2, https://matplotlib.org/</dc:title>
     </cc:Agent>
    </dc:creator>
   </cc:Work>
  </rdf:RDF>
 </metadata>
 <defs>
  <style type="text/css">*{stroke-linejoin: round; stroke-linecap: butt}</style>
 </defs>
 <g id="figure_1">
  <g id="patch_1">
   <path d="M 0 275.44125 
L 618.889697 275.44125 
L 618.889697 0 
L 0 0 
z
" style="fill: #ffffff"/>
  </g>
  <g id="axes_1">
   <g id="patch_2">
    <path d="M 53.535313 233.560781 
L 265.306719 233.560781 
L 265.306719 21.789375 
L 53.535313 21.789375 
z
" style="fill: #ffffff"/>
   </g>
   <g id="matplotlib.axis_1">
    <g id="xtick_1">
     <g id="line2d_1">
      <path d="M 60.517308 233.560781 
L 60.517308 21.789375 
" clip-path="url(#p075f22d7de)" style="fill: none; stroke: #cccccc; stroke-linecap: round"/>
     </g>
     <g id="text_1">
      <!-- −2 -->
      <g style="fill: #262626" transform="translate(54.246448 250.934375) scale(0.11 -0.11)">
       <defs>
        <path id="ArialMT-2212" d="M 3381 1997 
L 356 1997 
L 356 2522 
L 3381 2522 
L 3381 1997 
z
" transform="scale(0.015625)"/>
        <path id="ArialMT-32" d="M 3222 541 
L 3222 0 
L 194 0 
Q 188 203 259 391 
Q 375 700 629 1000 
Q 884 1300 1366 1694 
Q 2113 2306 2375 2664 
Q 2638 3022 2638 3341 
Q 2638 3675 2398 3904 
Q 2159 4134 1775 4134 
Q 1369 4134 1125 3890 
Q 881 3647 878 3216 
L 300 3275 
Q 359 3922 746 4261 
Q 1134 4600 1788 4600 
Q 2447 4600 2831 4234 
Q 3216 3869 3216 3328 
Q 3216 3053 3103 2787 
Q 2991 2522 2730 2228 
Q 2469 1934 1863 1422 
Q 1356 997 1212 845 
Q 1069 694 975 541 
L 3222 541 
z
" transform="scale(0.015625)"/>
       </defs>
       <use xlink:href="#ArialMT-2212"/>
       <use xlink:href="#ArialMT-32" x="58.398438"/>
      </g>
     </g>
    </g>
    <g id="xtick_2">
     <g id="line2d_2">
      <path d="M 113.460094 233.560781 
L 113.460094 21.789375 
" clip-path="url(#p075f22d7de)" style="fill: none; stroke: #cccccc; stroke-linecap: round"/>
     </g>
     <g id="text_2">
      <!-- −1 -->
      <g style="fill: #262626" transform="translate(107.189235 250.934375) scale(0.11 -0.11)">
       <defs>
        <path id="ArialMT-31" d="M 2384 0 
L 1822 0 
L 1822 3584 
Q 1619 3391 1289 3197 
Q 959 3003 697 2906 
L 697 3450 
Q 1169 3672 1522 3987 
Q 1875 4303 2022 4600 
L 2384 4600 
L 2384 0 
z
" transform="scale(0.015625)"/>
       </defs>
       <use xlink:href="#ArialMT-2212"/>
       <use xlink:href="#ArialMT-31" x="58.398438"/>
      </g>
     </g>
    </g>
    <g id="xtick_3">
     <g id="line2d_3">
      <path d="M 166.40288 233.560781 
L 166.40288 21.789375 
" clip-path="url(#p075f22d7de)" style="fill: none; stroke: #cccccc; stroke-linecap: round"/>
     </g>
     <g id="text_3">
      <!-- 0 -->
      <g style="fill: #262626" transform="translate(163.344365 250.934375) scale(0.11 -0.11)">
       <defs>
        <path id="ArialMT-30" d="M 266 2259 
Q 266 3072 433 3567 
Q 600 4063 929 4331 
Q 1259 4600 1759 4600 
Q 2128 4600 2406 4451 
Q 2684 4303 2865 4023 
Q 3047 3744 3150 3342 
Q 3253 2941 3253 2259 
Q 3253 1453 3087 958 
Q 2922 463 2592 192 
Q 2263 -78 1759 -78 
Q 1097 -78 719 397 
Q 266 969 266 2259 
z
M 844 2259 
Q 844 1131 1108 757 
Q 1372 384 1759 384 
Q 2147 384 2411 759 
Q 2675 1134 2675 2259 
Q 2675 3391 2411 3762 
Q 2147 4134 1753 4134 
Q 1366 4134 1134 3806 
Q 844 3388 844 2259 
z
" transform="scale(0.015625)"/>
       </defs>
       <use xlink:href="#ArialMT-30"/>
      </g>
     </g>
    </g>
    <g id="xtick_4">
     <g id="line2d_4">
      <path d="M 219.345667 233.560781 
L 219.345667 21.789375 
" clip-path="url(#p075f22d7de)" style="fill: none; stroke: #cccccc; stroke-linecap: round"/>
     </g>
     <g id="text_4">
      <!-- 1 -->
      <g style="fill: #262626" transform="translate(216.287151 250.934375) scale(0.11 -0.11)">
       <use xlink:href="#ArialMT-31"/>
      </g>
     </g>
    </g>
    <g id="text_5">
     <!-- Standard normal quantiles -->
     <g style="fill: #262626" transform="translate(89.383203 265.85625) scale(0.12 -0.12)">
      <defs>
       <path id="ArialMT-53" d="M 288 1472 
L 859 1522 
Q 900 1178 1048 958 
Q 1197 738 1509 602 
Q 1822 466 2213 466 
Q 2559 466 2825 569 
Q 3091 672 3220 851 
Q 3350 1031 3350 1244 
Q 3350 1459 3225 1620 
Q 3100 1781 2813 1891 
Q 2628 1963 1997 2114 
Q 1366 2266 1113 2400 
Q 784 2572 623 2826 
Q 463 3081 463 3397 
Q 463 3744 659 4045 
Q 856 4347 1234 4503 
Q 1613 4659 2075 4659 
Q 2584 4659 2973 4495 
Q 3363 4331 3572 4012 
Q 3781 3694 3797 3291 
L 3216 3247 
Q 3169 3681 2898 3903 
Q 2628 4125 2100 4125 
Q 1550 4125 1298 3923 
Q 1047 3722 1047 3438 
Q 1047 3191 1225 3031 
Q 1400 2872 2139 2705 
Q 2878 2538 3153 2413 
Q 3553 2228 3743 1945 
Q 3934 1663 3934 1294 
Q 3934 928 3725 604 
Q 3516 281 3123 101 
Q 2731 -78 2241 -78 
Q 1619 -78 1198 103 
Q 778 284 539 648 
Q 300 1013 288 1472 
z
" transform="scale(0.015625)"/>
       <path id="ArialMT-74" d="M 1650 503 
L 1731 6 
Q 1494 -44 1306 -44 
Q 1000 -44 831 53 
Q 663 150 594 308 
Q 525 466 525 972 
L 525 2881 
L 113 2881 
L 113 3319 
L 525 3319 
L 525 4141 
L 1084 4478 
L 1084 3319 
L 1650 3319 
L 1650 2881 
L 1084 2881 
L 1084 941 
Q 1084 700 1114 631 
Q 1144 563 1211 522 
Q 1278 481 1403 481 
Q 1497 481 1650 503 
z
" transform="scale(0.015625)"/>
       <path id="ArialMT-61" d="M 2588 409 
Q 2275 144 1986 34 
Q 1697 -75 1366 -75 
Q 819 -75 525 192 
Q 231 459 231 875 
Q 231 1119 342 1320 
Q 453 1522 633 1644 
Q 813 1766 1038 1828 
Q 1203 1872 1538 1913 
Q 2219 1994 2541 2106 
Q 2544 2222 2544 2253 
Q 2544 2597 2384 2738 
Q 2169 2928 1744 2928 
Q 1347 2928 1158 2789 
Q 969 2650 878 2297 
L 328 2372 
Q 403 2725 575 2942 
Q 747 3159 1072 3276 
Q 1397 3394 1825 3394 
Q 2250 3394 2515 3294 
Q 2781 3194 2906 3042 
Q 3031 2891 3081 2659 
Q 3109 2516 3109 2141 
L 3109 1391 
Q 3109 606 3145 398 
Q 3181 191 3288 0 
L 2700 0 
Q 2613 175 2588 409 
z
M 2541 1666 
Q 2234 1541 1622 1453 
Q 1275 1403 1131 1340 
Q 988 1278 909 1158 
Q 831 1038 831 891 
Q 831 666 1001 516 
Q 1172 366 1500 366 
Q 1825 366 2078 508 
Q 2331 650 2450 897 
Q 2541 1088 2541 1459 
L 2541 1666 
z
" transform="scale(0.015625)"/>
       <path id="ArialMT-6e" d="M 422 0 
L 422 3319 
L 928 3319 
L 928 2847 
Q 1294 3394 1984 3394 
Q 2284 3394 2536 3286 
Q 2788 3178 2913 3003 
Q 3038 2828 3088 2588 
Q 3119 2431 3119 2041 
L 3119 0 
L 2556 0 
L 2556 2019 
Q 2556 2363 2490 2533 
Q 2425 2703 2258 2804 
Q 2091 2906 1866 2906 
Q 1506 2906 1245 2678 
Q 984 2450 984 1813 
L 984 0 
L 422 0 
z
" transform="scale(0.015625)"/>
       <path id="ArialMT-64" d="M 2575 0 
L 2575 419 
Q 2259 -75 1647 -75 
Q 1250 -75 917 144 
Q 584 363 401 755 
Q 219 1147 219 1656 
Q 219 2153 384 2558 
Q 550 2963 881 3178 
Q 1213 3394 1622 3394 
Q 1922 3394 2156 3267 
Q 2391 3141 2538 2938 
L 2538 4581 
L 3097 4581 
L 3097 0 
L 2575 0 
z
M 797 1656 
Q 797 1019 1065 703 
Q 1334 388 1700 388 
Q 2069 388 2326 689 
Q 2584 991 2584 1609 
Q 2584 2291 2321 2609 
Q 2059 2928 1675 2928 
Q 1300 2928 1048 2622 
Q 797 2316 797 1656 
z
" transform="scale(0.015625)"/>
       <path id="ArialMT-72" d="M 416 0 
L 416 3319 
L 922 3319 
L 922 2816 
Q 1116 3169 1280 3281 
Q 1444 3394 1641 3394 
Q 1925 3394 2219 3213 
L 2025 2691 
Q 1819 2813 1613 2813 
Q 1428 2813 1281 2702 
Q 1134 2591 1072 2394 
Q 978 2094 978 1738 
L 978 0 
L 416 0 
z
" transform="scale(0.015625)"/>
       <path id="ArialMT-20" transform="scale(0.015625)"/>
       <path id="ArialMT-6f" d="M 213 1659 
Q 213 2581 725 3025 
Q 1153 3394 1769 3394 
Q 2453 3394 2887 2945 
Q 3322 2497 3322 1706 
Q 3322 1066 3130 698 
Q 2938 331 2570 128 
Q 2203 -75 1769 -75 
Q 1072 -75 642 372 
Q 213 819 213 1659 
z
M 791 1659 
Q 791 1022 1069 705 
Q 1347 388 1769 388 
Q 2188 388 2466 706 
Q 2744 1025 2744 1678 
Q 2744 2294 2464 2611 
Q 2184 2928 1769 2928 
Q 1347 2928 1069 2612 
Q 791 2297 791 1659 
z
" transform="scale(0.015625)"/>
       <path id="ArialMT-6d" d="M 422 0 
L 422 3319 
L 925 3319 
L 925 2853 
Q 1081 3097 1340 3245 
Q 1600 3394 1931 3394 
Q 2300 3394 2536 3241 
Q 2772 3088 2869 2813 
Q 3263 3394 3894 3394 
Q 4388 3394 4653 3120 
Q 4919 2847 4919 2278 
L 4919 0 
L 4359 0 
L 4359 2091 
Q 4359 2428 4304 2576 
Q 4250 2725 4106 2815 
Q 3963 2906 3769 2906 
Q 3419 2906 3187 2673 
Q 2956 2441 2956 1928 
L 2956 0 
L 2394 0 
L 2394 2156 
Q 2394 2531 2256 2718 
Q 2119 2906 1806 2906 
Q 1569 2906 1367 2781 
Q 1166 2656 1075 2415 
Q 984 2175 984 1722 
L 984 0 
L 422 0 
z
" transform="scale(0.015625)"/>
       <path id="ArialMT-6c" d="M 409 0 
L 409 4581 
L 972 4581 
L 972 0 
L 409 0 
z
" transform="scale(0.015625)"/>
       <path id="ArialMT-71" d="M 2538 -1272 
L 2538 353 
Q 2406 169 2170 47 
Q 1934 -75 1669 -75 
Q 1078 -75 651 397 
Q 225 869 225 1691 
Q 225 2191 398 2587 
Q 572 2984 901 3189 
Q 1231 3394 1625 3394 
Q 2241 3394 2594 2875 
L 2594 3319 
L 3100 3319 
L 3100 -1272 
L 2538 -1272 
z
M 803 1669 
Q 803 1028 1072 708 
Q 1341 388 1716 388 
Q 2075 388 2334 692 
Q 2594 997 2594 1619 
Q 2594 2281 2320 2615 
Q 2047 2950 1678 2950 
Q 1313 2950 1058 2639 
Q 803 2328 803 1669 
z
" transform="scale(0.015625)"/>
       <path id="ArialMT-75" d="M 2597 0 
L 2597 488 
Q 2209 -75 1544 -75 
Q 1250 -75 995 37 
Q 741 150 617 320 
Q 494 491 444 738 
Q 409 903 409 1263 
L 409 3319 
L 972 3319 
L 972 1478 
Q 972 1038 1006 884 
Q 1059 663 1231 536 
Q 1403 409 1656 409 
Q 1909 409 2131 539 
Q 2353 669 2445 892 
Q 2538 1116 2538 1541 
L 2538 3319 
L 3100 3319 
L 3100 0 
L 2597 0 
z
" transform="scale(0.015625)"/>
       <path id="ArialMT-69" d="M 425 3934 
L 425 4581 
L 988 4581 
L 988 3934 
L 425 3934 
z
M 425 0 
L 425 3319 
L 988 3319 
L 988 0 
L 425 0 
z
" transform="scale(0.015625)"/>
       <path id="ArialMT-65" d="M 2694 1069 
L 3275 997 
Q 3138 488 2766 206 
Q 2394 -75 1816 -75 
Q 1088 -75 661 373 
Q 234 822 234 1631 
Q 234 2469 665 2931 
Q 1097 3394 1784 3394 
Q 2450 3394 2872 2941 
Q 3294 2488 3294 1666 
Q 3294 1616 3291 1516 
L 816 1516 
Q 847 969 1125 678 
Q 1403 388 1819 388 
Q 2128 388 2347 550 
Q 2566 713 2694 1069 
z
M 847 1978 
L 2700 1978 
Q 2663 2397 2488 2606 
Q 2219 2931 1791 2931 
Q 1403 2931 1139 2672 
Q 875 2413 847 1978 
z
" transform="scale(0.015625)"/>
       <path id="ArialMT-73" d="M 197 991 
L 753 1078 
Q 800 744 1014 566 
Q 1228 388 1613 388 
Q 2000 388 2187 545 
Q 2375 703 2375 916 
Q 2375 1106 2209 1216 
Q 2094 1291 1634 1406 
Q 1016 1563 777 1677 
Q 538 1791 414 1992 
Q 291 2194 291 2438 
Q 291 2659 392 2848 
Q 494 3038 669 3163 
Q 800 3259 1026 3326 
Q 1253 3394 1513 3394 
Q 1903 3394 2198 3281 
Q 2494 3169 2634 2976 
Q 2775 2784 2828 2463 
L 2278 2388 
Q 2241 2644 2061 2787 
Q 1881 2931 1553 2931 
Q 1166 2931 1000 2803 
Q 834 2675 834 2503 
Q 834 2394 903 2306 
Q 972 2216 1119 2156 
Q 1203 2125 1616 2013 
Q 2213 1853 2448 1751 
Q 2684 1650 2818 1456 
Q 2953 1263 2953 975 
Q 2953 694 2789 445 
Q 2625 197 2315 61 
Q 2006 -75 1616 -75 
Q 969 -75 630 194 
Q 291 463 197 991 
z
" transform="scale(0.015625)"/>
      </defs>
      <use xlink:href="#ArialMT-53"/>
      <use xlink:href="#ArialMT-74" x="66.699219"/>
      <use xlink:href="#ArialMT-61" x="94.482422"/>
      <use xlink:href="#ArialMT-6e" x="150.097656"/>
      <use xlink:href="#ArialMT-64" x="205.712891"/>
      <use xlink:href="#ArialMT-61" x="261.328125"/>
      <use xlink:href="#ArialMT-72" x="316.943359"/>
      <use xlink:href="#ArialMT-64" x="350.244141"/>
      <use xlink:href="#ArialMT-20" x="405.859375"/>
      <use xlink:href="#ArialMT-6e" x="433.642578"/>
      <use xlink:href="#ArialMT-6f" x="489.257812"/>
      <use xlink:href="#ArialMT-72" x="544.873047"/>
      <use xlink:href="#ArialMT-6d" x="578.173828"/>
      <use xlink:href="#ArialMT-61" x="661.474609"/>
      <use xlink:href="#ArialMT-6c" x="717.089844"/>
      <use xlink:href="#ArialMT-20" x="739.306641"/>
      <use xlink:href="#ArialMT-71" x="767.089844"/>
      <use xlink:href="#ArialMT-75" x="822.705078"/>
      <use xlink:href="#ArialMT-61" x="878.320312"/>
      <use xlink:href="#ArialMT-6e" x="933.935547"/>
      <use xlink:href="#ArialMT-74" x="989.550781"/>
      <use xlink:href="#ArialMT-69" x="1017.333984"/>
      <use xlink:href="#ArialMT-6c" x="1039.550781"/>
      <use xlink:href="#ArialMT-65" x="1061.767578"/>
      <use xlink:href="#ArialMT-73" x="1117.382812"/>
     </g>
    </g>
   </g>
   <g id="matplotlib.axis_2">
    <g id="ytick_1">
     <g id="line2d_5">
      <path d="M 53.535313 226.578786 
L 265.306719 226.578786 
" clip-path="url(#p075f22d7de)" style="fill: none; stroke: #cccccc; stroke-linecap: round"/>
     </g>
     <g id="text_6">
      <!-- −2.0 -->
      <g style="fill: #262626" transform="translate(22.320625 230.515583) scale(0.11 -0.11)">
       <defs>
        <path id="ArialMT-2e" d="M 581 0 
L 581 641 
L 1222 641 
L 1222 0 
L 581 0 
z
" transform="scale(0.015625)"/>
       </defs>
       <use xlink:href="#ArialMT-2212"/>
       <use xlink:href="#ArialMT-32" x="58.398438"/>
       <use xlink:href="#ArialMT-2e" x="114.013672"/>
       <use xlink:href="#ArialMT-30" x="141.796875"/>
      </g>
     </g>
    </g>
    <g id="ytick_2">
     <g id="line2d_6">
      <path d="M 53.535313 200.107393 
L 265.306719 200.107393 
" clip-path="url(#p075f22d7de)" style="fill: none; stroke: #cccccc; stroke-linecap: round"/>
     </g>
     <g id="text_7">
      <!-- −1.5 -->
      <g style="fill: #262626" transform="translate(22.320625 204.04419) scale(0.11 -0.11)">
       <defs>
        <path id="ArialMT-35" d="M 266 1200 
L 856 1250 
Q 922 819 1161 601 
Q 1400 384 1738 384 
Q 2144 384 2425 690 
Q 2706 997 2706 1503 
Q 2706 1984 2436 2262 
Q 2166 2541 1728 2541 
Q 1456 2541 1237 2417 
Q 1019 2294 894 2097 
L 366 2166 
L 809 4519 
L 3088 4519 
L 3088 3981 
L 1259 3981 
L 1013 2750 
Q 1425 3038 1878 3038 
Q 2478 3038 2890 2622 
Q 3303 2206 3303 1553 
Q 3303 931 2941 478 
Q 2500 -78 1738 -78 
Q 1113 -78 717 272 
Q 322 622 266 1200 
z
" transform="scale(0.015625)"/>
       </defs>
       <use xlink:href="#ArialMT-2212"/>
       <use xlink:href="#ArialMT-31" x="58.398438"/>
       <use xlink:href="#ArialMT-2e" x="114.013672"/>
       <use xlink:href="#ArialMT-35" x="141.796875"/>
      </g>
     </g>
    </g>
    <g id="ytick_3">
     <g id="line2d_7">
      <path d="M 53.535313 173.636 
L 265.306719 173.636 
" clip-path="url(#p075f22d7de)" style="fill: none; stroke: #cccccc; stroke-linecap: round"/>
     </g>
     <g id="text_8">
      <!-- −1.0 -->
      <g style="fill: #262626" transform="translate(22.320625 177.572797) scale(0.11 -0.11)">
       <use xlink:href="#ArialMT-2212"/>
       <use xlink:href="#ArialMT-31" x="58.398438"/>
       <use xlink:href="#ArialMT-2e" x="114.013672"/>
       <use xlink:href="#ArialMT-30" x="141.796875"/>
      </g>
     </g>
    </g>
    <g id="ytick_4">
     <g id="line2d_8">
      <path d="M 53.535313 147.164607 
L 265.306719 147.164607 
" clip-path="url(#p075f22d7de)" style="fill: none; stroke: #cccccc; stroke-linecap: round"/>
     </g>
     <g id="text_9">
      <!-- −0.5 -->
      <g style="fill: #262626" transform="translate(22.320625 151.101403) scale(0.11 -0.11)">
       <use xlink:href="#ArialMT-2212"/>
       <use xlink:href="#ArialMT-30" x="58.398438"/>
       <use xlink:href="#ArialMT-2e" x="114.013672"/>
       <use xlink:href="#ArialMT-35" x="141.796875"/>
      </g>
     </g>
    </g>
    <g id="ytick_5">
     <g id="line2d_9">
      <path d="M 53.535313 120.693213 
L 265.306719 120.693213 
" clip-path="url(#p075f22d7de)" style="fill: none; stroke: #cccccc; stroke-linecap: round"/>
     </g>
     <g id="text_10">
      <!-- 0.0 -->
      <g style="fill: #262626" transform="translate(28.745313 124.63001) scale(0.11 -0.11)">
       <use xlink:href="#ArialMT-30"/>
       <use xlink:href="#ArialMT-2e" x="55.615234"/>
       <use xlink:href="#ArialMT-30" x="83.398438"/>
      </g>
     </g>
    </g>
    <g id="ytick_6">
     <g id="line2d_10">
      <path d="M 53.535313 94.22182 
L 265.306719 94.22182 
" clip-path="url(#p075f22d7de)" style="fill: none; stroke: #cccccc; stroke-linecap: round"/>
     </g>
     <g id="text_11">
      <!-- 0.5 -->
      <g style="fill: #262626" transform="translate(28.745313 98.158617) scale(0.11 -0.11)">
       <use xlink:href="#ArialMT-30"/>
       <use xlink:href="#ArialMT-2e" x="55.615234"/>
       <use xlink:href="#ArialMT-35" x="83.398438"/>
      </g>
     </g>
    </g>
    <g id="ytick_7">
     <g id="line2d_11">
      <path d="M 53.535313 67.750427 
L 265.306719 67.750427 
" clip-path="url(#p075f22d7de)" style="fill: none; stroke: #cccccc; stroke-linecap: round"/>
     </g>
     <g id="text_12">
      <!-- 1.0 -->
      <g style="fill: #262626" transform="translate(28.745313 71.687224) scale(0.11 -0.11)">
       <use xlink:href="#ArialMT-31"/>
       <use xlink:href="#ArialMT-2e" x="55.615234"/>
       <use xlink:href="#ArialMT-30" x="83.398438"/>
      </g>
     </g>
    </g>
    <g id="ytick_8">
     <g id="line2d_12">
      <path d="M 53.535313 41.279034 
L 265.306719 41.279034 
" clip-path="url(#p075f22d7de)" style="fill: none; stroke: #cccccc; stroke-linecap: round"/>
     </g>
     <g id="text_13">
      <!-- 1.5 -->
      <g style="fill: #262626" transform="translate(28.745313 45.215831) scale(0.11 -0.11)">
       <use xlink:href="#ArialMT-31"/>
       <use xlink:href="#ArialMT-2e" x="55.615234"/>
       <use xlink:href="#ArialMT-35" x="83.398438"/>
      </g>
     </g>
    </g>
    <g id="text_14">
     <!-- Sample quantiles -->
     <g style="fill: #262626" transform="translate(15.935625 173.700703) rotate(-90) scale(0.12 -0.12)">
      <defs>
       <path id="ArialMT-70" d="M 422 -1272 
L 422 3319 
L 934 3319 
L 934 2888 
Q 1116 3141 1344 3267 
Q 1572 3394 1897 3394 
Q 2322 3394 2647 3175 
Q 2972 2956 3137 2557 
Q 3303 2159 3303 1684 
Q 3303 1175 3120 767 
Q 2938 359 2589 142 
Q 2241 -75 1856 -75 
Q 1575 -75 1351 44 
Q 1128 163 984 344 
L 984 -1272 
L 422 -1272 
z
M 931 1641 
Q 931 1000 1190 694 
Q 1450 388 1819 388 
Q 2194 388 2461 705 
Q 2728 1022 2728 1688 
Q 2728 2322 2467 2637 
Q 2206 2953 1844 2953 
Q 1484 2953 1207 2617 
Q 931 2281 931 1641 
z
" transform="scale(0.015625)"/>
      </defs>
      <use xlink:href="#ArialMT-53"/>
      <use xlink:href="#ArialMT-61" x="66.699219"/>
      <use xlink:href="#ArialMT-6d" x="122.314453"/>
      <use xlink:href="#ArialMT-70" x="205.615234"/>
      <use xlink:href="#ArialMT-6c" x="261.230469"/>
      <use xlink:href="#ArialMT-65" x="283.447266"/>
      <use xlink:href="#ArialMT-20" x="339.0625"/>
      <use xlink:href="#ArialMT-71" x="366.845703"/>
      <use xlink:href="#ArialMT-75" x="422.460938"/>
      <use xlink:href="#ArialMT-61" x="478.076172"/>
      <use xlink:href="#ArialMT-6e" x="533.691406"/>
      <use xlink:href="#ArialMT-74" x="589.306641"/>
      <use xlink:href="#ArialMT-69" x="617.089844"/>
      <use xlink:href="#ArialMT-6c" x="639.306641"/>
      <use xlink:href="#ArialMT-65" x="661.523438"/>
      <use xlink:href="#ArialMT-73" x="717.138672"/>
     </g>
    </g>
   </g>
   <g id="PathCollection_1">
    <defs>
     <path id="m8c3edf4b11" d="M 0 3 
C 0.795609 3 1.55874 2.683901 2.12132 2.12132 
C 2.683901 1.55874 3 0.795609 3 0 
C 3 -0.795609 2.683901 -1.55874 2.12132 -2.12132 
C 1.55874 -2.683901 0.795609 -3 0 -3 
C -0.795609 -3 -1.55874 -2.683901 -2.12132 -2.12132 
C -2.683901 -1.55874 -3 -0.795609 -3 0 
C -3 0.795609 -2.683901 1.55874 -2.12132 2.12132 
C -1.55874 2.683901 -0.795609 3 0 3 
z
" style="stroke: #0000ff"/>
    </defs>
    <g clip-path="url(#p075f22d7de)">
     <use xlink:href="#m8c3edf4b11" x="63.796" y="233.410768" style="fill: #0000ff; stroke: #0000ff"/>
     <use xlink:href="#m8c3edf4b11" x="85.744052" y="221.387005" style="fill: #0000ff; stroke: #0000ff"/>
     <use xlink:href="#m8c3edf4b11" x="99.07699" y="173.594312" style="fill: #0000ff; stroke: #0000ff"/>
     <use xlink:href="#m8c3edf4b11" x="109.130114" y="173.558055" style="fill: #0000ff; stroke: #0000ff"/>
     <use xlink:href="#m8c3edf4b11" x="117.455211" y="172.217069" style="fill: #0000ff; stroke: #0000ff"/>
     <use xlink:href="#m8c3edf4b11" x="124.717193" y="162.498848" style="fill: #0000ff; stroke: #0000ff"/>
     <use xlink:href="#m8c3edf4b11" x="131.268038" y="156.688567" style="fill: #0000ff; stroke: #0000ff"/>
     <use xlink:href="#m8c3edf4b11" x="137.319912" y="152.829422" style="fill: #0000ff; stroke: #0000ff"/>
     <use xlink:href="#m8c3edf4b11" x="143.01308" y="149.244605" style="fill: #0000ff; stroke: #0000ff"/>
     <use xlink:href="#m8c3edf4b11" x="148.447317" y="145.081347" style="fill: #0000ff; stroke: #0000ff"/>
     <use xlink:href="#m8c3edf4b11" x="153.698277" y="137.903021" style="fill: #0000ff; stroke: #0000ff"/>
     <use xlink:href="#m8c3edf4b11" x="158.826873" y="134.832943" style="fill: #0000ff; stroke: #0000ff"/>
     <use xlink:href="#m8c3edf4b11" x="163.885188" y="131.194563" style="fill: #0000ff; stroke: #0000ff"/>
     <use xlink:href="#m8c3edf4b11" x="168.920573" y="127.362159" style="fill: #0000ff; stroke: #0000ff"/>
     <use xlink:href="#m8c3edf4b11" x="173.978887" y="116.671084" style="fill: #0000ff; stroke: #0000ff"/>
     <use xlink:href="#m8c3edf4b11" x="179.107484" y="102.882724" style="fill: #0000ff; stroke: #0000ff"/>
     <use xlink:href="#m8c3edf4b11" x="184.358443" y="93.745023" style="fill: #0000ff; stroke: #0000ff"/>
     <use xlink:href="#m8c3edf4b11" x="189.792681" y="89.744331" style="fill: #0000ff; stroke: #0000ff"/>
     <use xlink:href="#m8c3edf4b11" x="195.485849" y="75.668719" style="fill: #0000ff; stroke: #0000ff"/>
     <use xlink:href="#m8c3edf4b11" x="201.537723" y="73.903078" style="fill: #0000ff; stroke: #0000ff"/>
     <use xlink:href="#m8c3edf4b11" x="208.088568" y="73.86648" style="fill: #0000ff; stroke: #0000ff"/>
     <use xlink:href="#m8c3edf4b11" x="215.35055" y="62.301918" style="fill: #0000ff; stroke: #0000ff"/>
     <use xlink:href="#m8c3edf4b11" x="223.675646" y="61.756298" style="fill: #0000ff; stroke: #0000ff"/>
     <use xlink:href="#m8c3edf4b11" x="233.72877" y="45.947745" style="fill: #0000ff; stroke: #0000ff"/>
     <use xlink:href="#m8c3edf4b11" x="247.061709" y="37.866881" style="fill: #0000ff; stroke: #0000ff"/>
     <use xlink:href="#m8c3edf4b11" x="269.00976" y="31.866584" style="fill: #0000ff; stroke: #0000ff"/>
    </g>
   </g>
   <g id="line2d_13">
    <path d="M 53.535313 233.560781 
L 265.306719 21.789375 
" clip-path="url(#p075f22d7de)" style="fill: none; stroke: #708090; stroke-width: 1.5; stroke-linecap: round"/>
   </g>
   <g id="line2d_14">
    <path d="M 63.796 228.567932 
L 85.744052 205.493068 
L 99.07699 191.475616 
L 109.130114 180.906364 
L 117.455211 172.153857 
L 124.717193 164.519045 
L 131.268038 157.631879 
L 137.319912 151.269302 
L 143.01308 145.283847 
L 148.447317 139.570615 
L 153.698277 134.050072 
L 158.826873 128.658173 
L 163.885188 123.340164 
L 168.920573 118.046263 
L 173.978887 112.728254 
L 179.107484 107.336355 
L 184.358443 101.815812 
L 189.792681 96.10258 
L 195.485849 90.117125 
L 201.537723 83.754547 
L 208.088568 76.867382 
L 215.35055 69.232569 
L 223.675646 60.480063 
L 233.72877 49.910811 
L 247.061709 35.893359 
L 269.00976 12.818495 
" clip-path="url(#p075f22d7de)" style="fill: none; stroke: #c44e52; stroke-width: 2; stroke-linecap: round"/>
   </g>
   <g id="line2d_15">
    <path d="M 63.796 180.393786 
L 85.744052 165.583876 
L 99.07699 155.986773 
L 109.130114 148.046012 
L 117.455211 141.04637 
L 124.717193 134.657805 
L 131.268038 128.689319 
L 137.319912 123.015872 
L 143.01308 117.548112 
L 148.447317 112.217381 
L 153.698277 106.967313 
L 158.826873 101.74856 
L 163.885188 96.515088 
L 168.920573 91.221187 
L 173.978887 85.818641 
L 179.107484 80.253597 
L 184.358443 74.462577 
L 189.792681 68.366845 
L 195.485849 61.863695 
L 201.537723 54.811987 
L 208.088568 47.006142 
L 215.35055 38.125082 
L 223.675646 27.61971 
L 233.72877 14.421968 
L 244.880868 -1 
" clip-path="url(#p075f22d7de)" style="fill: none; stroke-dasharray: 4.625,2; stroke-dashoffset: 0; stroke: #c44e52; stroke-width: 1.25"/>
   </g>
   <g id="line2d_16">
    <path d="M 64.006678 276.44125 
L 85.744052 245.402259 
L 99.07699 226.964459 
L 109.130114 213.766717 
L 117.455211 203.261345 
L 124.717193 194.380285 
L 131.268038 186.57444 
L 137.319912 179.522731 
L 143.01308 173.019582 
L 148.447317 166.923849 
L 153.698277 161.13283 
L 158.826873 155.567785 
L 163.885188 150.16524 
L 168.920573 144.871339 
L 173.978887 139.637867 
L 179.107484 134.419113 
L 184.358443 129.169046 
L 189.792681 123.838315 
L 195.485849 118.370554 
L 201.537723 112.697108 
L 208.088568 106.728622 
L 215.35055 100.340057 
L 223.675646 93.340415 
L 233.72877 85.399654 
L 247.061709 75.80255 
L 269.00976 60.99264 
" clip-path="url(#p075f22d7de)" style="fill: none; stroke-dasharray: 4.625,2; stroke-dashoffset: 0; stroke: #c44e52; stroke-width: 1.25"/>
   </g>
   <g id="patch_3">
    <path d="M 53.535313 233.560781 
L 53.535313 21.789375 
" style="fill: none; stroke: #cccccc; stroke-width: 1.25; stroke-linejoin: miter; stroke-linecap: square"/>
   </g>
   <g id="patch_4">
    <path d="M 265.306719 233.560781 
L 265.306719 21.789375 
" style="fill: none; stroke: #cccccc; stroke-width: 1.25; stroke-linejoin: miter; stroke-linecap: square"/>
   </g>
   <g id="patch_5">
    <path d="M 53.535313 233.560781 
L 265.306719 233.560781 
" style="fill: none; stroke: #cccccc; stroke-width: 1.25; stroke-linejoin: miter; stroke-linecap: square"/>
   </g>
   <g id="patch_6">
    <path d="M 53.535313 21.789375 
L 265.306719 21.789375 
" style="fill: none; stroke: #cccccc; stroke-width: 1.25; stroke-linejoin: miter; stroke-linecap: square"/>
   </g>
   <g id="text_15">
    <!-- $R^2=0.975$ -->
    <g style="fill: #262626" transform="translate(180.598156 212.383641) scale(0.12 -0.12)">
     <defs>
      <path id="DejaVuSans-Oblique-52" d="M 1613 4147 
L 1294 2491 
L 2106 2491 
Q 2584 2491 2879 2755 
Q 3175 3019 3175 3444 
Q 3175 3784 2976 3965 
Q 2778 4147 2406 4147 
L 1613 4147 
z
M 2772 2241 
Q 2972 2194 3105 2009 
Q 3238 1825 3413 1275 
L 3809 0 
L 3144 0 
L 2778 1197 
Q 2638 1659 2453 1815 
Q 2269 1972 1888 1972 
L 1191 1972 
L 806 0 
L 172 0 
L 1081 4666 
L 2503 4666 
Q 3150 4666 3495 4373 
Q 3841 4081 3841 3531 
Q 3841 3044 3547 2687 
Q 3253 2331 2772 2241 
z
" transform="scale(0.015625)"/>
      <path id="DejaVuSans-32" d="M 1228 531 
L 3431 531 
L 3431 0 
L 469 0 
L 469 531 
Q 828 903 1448 1529 
Q 2069 2156 2228 2338 
Q 2531 2678 2651 2914 
Q 2772 3150 2772 3378 
Q 2772 3750 2511 3984 
Q 2250 4219 1831 4219 
Q 1534 4219 1204 4116 
Q 875 4013 500 3803 
L 500 4441 
Q 881 4594 1212 4672 
Q 1544 4750 1819 4750 
Q 2544 4750 2975 4387 
Q 3406 4025 3406 3419 
Q 3406 3131 3298 2873 
Q 3191 2616 2906 2266 
Q 2828 2175 2409 1742 
Q 1991 1309 1228 531 
z
" transform="scale(0.015625)"/>
      <path id="DejaVuSans-3d" d="M 678 2906 
L 4684 2906 
L 4684 2381 
L 678 2381 
L 678 2906 
z
M 678 1631 
L 4684 1631 
L 4684 1100 
L 678 1100 
L 678 1631 
z
" transform="scale(0.015625)"/>
      <path id="DejaVuSans-30" d="M 2034 4250 
Q 1547 4250 1301 3770 
Q 1056 3291 1056 2328 
Q 1056 1369 1301 889 
Q 1547 409 2034 409 
Q 2525 409 2770 889 
Q 3016 1369 3016 2328 
Q 3016 3291 2770 3770 
Q 2525 4250 2034 4250 
z
M 2034 4750 
Q 2819 4750 3233 4129 
Q 3647 3509 3647 2328 
Q 3647 1150 3233 529 
Q 2819 -91 2034 -91 
Q 1250 -91 836 529 
Q 422 1150 422 2328 
Q 422 3509 836 4129 
Q 1250 4750 2034 4750 
z
" transform="scale(0.015625)"/>
      <path id="DejaVuSans-2e" d="M 684 794 
L 1344 794 
L 1344 0 
L 684 0 
L 684 794 
z
" transform="scale(0.015625)"/>
      <path id="DejaVuSans-39" d="M 703 97 
L 703 672 
Q 941 559 1184 500 
Q 1428 441 1663 441 
Q 2288 441 2617 861 
Q 2947 1281 2994 2138 
Q 2813 1869 2534 1725 
Q 2256 1581 1919 1581 
Q 1219 1581 811 2004 
Q 403 2428 403 3163 
Q 403 3881 828 4315 
Q 1253 4750 1959 4750 
Q 2769 4750 3195 4129 
Q 3622 3509 3622 2328 
Q 3622 1225 3098 567 
Q 2575 -91 1691 -91 
Q 1453 -91 1209 -44 
Q 966 3 703 97 
z
M 1959 2075 
Q 2384 2075 2632 2365 
Q 2881 2656 2881 3163 
Q 2881 3666 2632 3958 
Q 2384 4250 1959 4250 
Q 1534 4250 1286 3958 
Q 1038 3666 1038 3163 
Q 1038 2656 1286 2365 
Q 1534 2075 1959 2075 
z
" transform="scale(0.015625)"/>
      <path id="DejaVuSans-37" d="M 525 4666 
L 3525 4666 
L 3525 4397 
L 1831 0 
L 1172 0 
L 2766 4134 
L 525 4134 
L 525 4666 
z
" transform="scale(0.015625)"/>
      <path id="DejaVuSans-35" d="M 691 4666 
L 3169 4666 
L 3169 4134 
L 1269 4134 
L 1269 2991 
Q 1406 3038 1543 3061 
Q 1681 3084 1819 3084 
Q 2600 3084 3056 2656 
Q 3513 2228 3513 1497 
Q 3513 744 3044 326 
Q 2575 -91 1722 -91 
Q 1428 -91 1123 -41 
Q 819 9 494 109 
L 494 744 
Q 775 591 1075 516 
Q 1375 441 1709 441 
Q 2250 441 2565 725 
Q 2881 1009 2881 1497 
Q 2881 1984 2565 2268 
Q 2250 2553 1709 2553 
Q 1456 2553 1204 2497 
Q 953 2441 691 2322 
L 691 4666 
z
" transform="scale(0.015625)"/>
     </defs>
     <use xlink:href="#DejaVuSans-Oblique-52" transform="translate(0 0.765625)"/>
     <use xlink:href="#DejaVuSans-32" transform="translate(76.499193 39.046875) scale(0.7)"/>
     <use xlink:href="#DejaVuSans-3d" transform="translate(143.252122 0.765625)"/>
     <use xlink:href="#DejaVuSans-30" transform="translate(246.523607 0.765625)"/>
     <use xlink:href="#DejaVuSans-2e" transform="translate(310.146654 0.765625)"/>
     <use xlink:href="#DejaVuSans-39" transform="translate(341.933763 0.765625)"/>
     <use xlink:href="#DejaVuSans-37" transform="translate(405.55681 0.765625)"/>
     <use xlink:href="#DejaVuSans-35" transform="translate(469.179857 0.765625)"/>
    </g>
   </g>
   <g id="text_16">
    <!-- Random normal values -->
    <g style="fill: #262626" transform="translate(97.728828 15.789375) scale(0.12 -0.12)">
     <defs>
      <path id="ArialMT-52" d="M 503 0 
L 503 4581 
L 2534 4581 
Q 3147 4581 3465 4457 
Q 3784 4334 3975 4021 
Q 4166 3709 4166 3331 
Q 4166 2844 3850 2509 
Q 3534 2175 2875 2084 
Q 3116 1969 3241 1856 
Q 3506 1613 3744 1247 
L 4541 0 
L 3778 0 
L 3172 953 
Q 2906 1366 2734 1584 
Q 2563 1803 2427 1890 
Q 2291 1978 2150 2013 
Q 2047 2034 1813 2034 
L 1109 2034 
L 1109 0 
L 503 0 
z
M 1109 2559 
L 2413 2559 
Q 2828 2559 3062 2645 
Q 3297 2731 3419 2920 
Q 3541 3109 3541 3331 
Q 3541 3656 3305 3865 
Q 3069 4075 2559 4075 
L 1109 4075 
L 1109 2559 
z
" transform="scale(0.015625)"/>
      <path id="ArialMT-76" d="M 1344 0 
L 81 3319 
L 675 3319 
L 1388 1331 
Q 1503 1009 1600 663 
Q 1675 925 1809 1294 
L 2547 3319 
L 3125 3319 
L 1869 0 
L 1344 0 
z
" transform="scale(0.015625)"/>
     </defs>
     <use xlink:href="#ArialMT-52"/>
     <use xlink:href="#ArialMT-61" x="72.216797"/>
     <use xlink:href="#ArialMT-6e" x="127.832031"/>
     <use xlink:href="#ArialMT-64" x="183.447266"/>
     <use xlink:href="#ArialMT-6f" x="239.0625"/>
     <use xlink:href="#ArialMT-6d" x="294.677734"/>
     <use xlink:href="#ArialMT-20" x="377.978516"/>
     <use xlink:href="#ArialMT-6e" x="405.761719"/>
     <use xlink:href="#ArialMT-6f" x="461.376953"/>
     <use xlink:href="#ArialMT-72" x="516.992188"/>
     <use xlink:href="#ArialMT-6d" x="550.292969"/>
     <use xlink:href="#ArialMT-61" x="633.59375"/>
     <use xlink:href="#ArialMT-6c" x="689.208984"/>
     <use xlink:href="#ArialMT-20" x="711.425781"/>
     <use xlink:href="#ArialMT-76" x="739.208984"/>
     <use xlink:href="#ArialMT-61" x="789.208984"/>
     <use xlink:href="#ArialMT-6c" x="844.824219"/>
     <use xlink:href="#ArialMT-75" x="867.041016"/>
     <use xlink:href="#ArialMT-65" x="922.65625"/>
     <use xlink:href="#ArialMT-73" x="978.271484"/>
    </g>
   </g>
  </g>
  <g id="axes_2">
   <g id="patch_7">
    <path d="M 399.086222 233.560781 
L 610.857628 233.560781 
L 610.857628 21.789375 
L 399.086222 21.789375 
z
" style="fill: #ffffff"/>
   </g>
   <g id="matplotlib.axis_3">
    <g id="xtick_5">
     <g id="line2d_17">
      <path d="M 405.774317 233.560781 
L 405.774317 21.789375 
" clip-path="url(#p9be3936540)" style="fill: none; stroke: #cccccc; stroke-linecap: round"/>
     </g>
     <g id="text_17">
      <!-- −2 -->
      <g style="fill: #262626" transform="translate(399.503458 250.934375) scale(0.11 -0.11)">
       <use xlink:href="#ArialMT-2212"/>
       <use xlink:href="#ArialMT-32" x="58.398438"/>
      </g>
     </g>
    </g>
    <g id="xtick_6">
     <g id="line2d_18">
      <path d="M 456.488533 233.560781 
L 456.488533 21.789375 
" clip-path="url(#p9be3936540)" style="fill: none; stroke: #cccccc; stroke-linecap: round"/>
     </g>
     <g id="text_18">
      <!-- −1 -->
      <g style="fill: #262626" transform="translate(450.217674 250.934375) scale(0.11 -0.11)">
       <use xlink:href="#ArialMT-2212"/>
       <use xlink:href="#ArialMT-31" x="58.398438"/>
      </g>
     </g>
    </g>
    <g id="xtick_7">
     <g id="line2d_19">
      <path d="M 507.202749 233.560781 
L 507.202749 21.789375 
" clip-path="url(#p9be3936540)" style="fill: none; stroke: #cccccc; stroke-linecap: round"/>
     </g>
     <g id="text_19">
      <!-- 0 -->
      <g style="fill: #262626" transform="translate(504.144234 250.934375) scale(0.11 -0.11)">
       <use xlink:href="#ArialMT-30"/>
      </g>
     </g>
    </g>
    <g id="xtick_8">
     <g id="line2d_20">
      <path d="M 557.916965 233.560781 
L 557.916965 21.789375 
" clip-path="url(#p9be3936540)" style="fill: none; stroke: #cccccc; stroke-linecap: round"/>
     </g>
     <g id="text_20">
      <!-- 1 -->
      <g style="fill: #262626" transform="translate(554.85845 250.934375) scale(0.11 -0.11)">
       <use xlink:href="#ArialMT-31"/>
      </g>
     </g>
    </g>
    <g id="xtick_9">
     <g id="line2d_21">
      <path d="M 608.631181 233.560781 
L 608.631181 21.789375 
" clip-path="url(#p9be3936540)" style="fill: none; stroke: #cccccc; stroke-linecap: round"/>
     </g>
     <g id="text_21">
      <!-- 2 -->
      <g style="fill: #262626" transform="translate(605.572666 250.934375) scale(0.11 -0.11)">
       <use xlink:href="#ArialMT-32"/>
      </g>
     </g>
    </g>
    <g id="text_22">
     <!-- Standard normal quantiles -->
     <g style="fill: #262626" transform="translate(434.934112 265.85625) scale(0.12 -0.12)">
      <use xlink:href="#ArialMT-53"/>
      <use xlink:href="#ArialMT-74" x="66.699219"/>
      <use xlink:href="#ArialMT-61" x="94.482422"/>
      <use xlink:href="#ArialMT-6e" x="150.097656"/>
      <use xlink:href="#ArialMT-64" x="205.712891"/>
      <use xlink:href="#ArialMT-61" x="261.328125"/>
      <use xlink:href="#ArialMT-72" x="316.943359"/>
      <use xlink:href="#ArialMT-64" x="350.244141"/>
      <use xlink:href="#ArialMT-20" x="405.859375"/>
      <use xlink:href="#ArialMT-6e" x="433.642578"/>
      <use xlink:href="#ArialMT-6f" x="489.257812"/>
      <use xlink:href="#ArialMT-72" x="544.873047"/>
      <use xlink:href="#ArialMT-6d" x="578.173828"/>
      <use xlink:href="#ArialMT-61" x="661.474609"/>
      <use xlink:href="#ArialMT-6c" x="717.089844"/>
      <use xlink:href="#ArialMT-20" x="739.306641"/>
      <use xlink:href="#ArialMT-71" x="767.089844"/>
      <use xlink:href="#ArialMT-75" x="822.705078"/>
      <use xlink:href="#ArialMT-61" x="878.320312"/>
      <use xlink:href="#ArialMT-6e" x="933.935547"/>
      <use xlink:href="#ArialMT-74" x="989.550781"/>
      <use xlink:href="#ArialMT-69" x="1017.333984"/>
      <use xlink:href="#ArialMT-6c" x="1039.550781"/>
      <use xlink:href="#ArialMT-65" x="1061.767578"/>
      <use xlink:href="#ArialMT-73" x="1117.382812"/>
     </g>
    </g>
   </g>
   <g id="matplotlib.axis_4">
    <g id="ytick_9">
     <g id="line2d_22">
      <path d="M 399.086222 226.872686 
L 610.857628 226.872686 
" clip-path="url(#p9be3936540)" style="fill: none; stroke: #cccccc; stroke-linecap: round"/>
     </g>
     <g id="text_23">
      <!-- −2.0 -->
      <g style="fill: #262626" transform="translate(367.871534 230.809483) scale(0.11 -0.11)">
       <use xlink:href="#ArialMT-2212"/>
       <use xlink:href="#ArialMT-32" x="58.398438"/>
       <use xlink:href="#ArialMT-2e" x="114.013672"/>
       <use xlink:href="#ArialMT-30" x="141.796875"/>
      </g>
     </g>
    </g>
    <g id="ytick_10">
     <g id="line2d_23">
      <path d="M 399.086222 201.515578 
L 610.857628 201.515578 
" clip-path="url(#p9be3936540)" style="fill: none; stroke: #cccccc; stroke-linecap: round"/>
     </g>
     <g id="text_24">
      <!-- −1.5 -->
      <g style="fill: #262626" transform="translate(367.871534 205.452375) scale(0.11 -0.11)">
       <use xlink:href="#ArialMT-2212"/>
       <use xlink:href="#ArialMT-31" x="58.398438"/>
       <use xlink:href="#ArialMT-2e" x="114.013672"/>
       <use xlink:href="#ArialMT-35" x="141.796875"/>
      </g>
     </g>
    </g>
    <g id="ytick_11">
     <g id="line2d_24">
      <path d="M 399.086222 176.15847 
L 610.857628 176.15847 
" clip-path="url(#p9be3936540)" style="fill: none; stroke: #cccccc; stroke-linecap: round"/>
     </g>
     <g id="text_25">
      <!-- −1.0 -->
      <g style="fill: #262626" transform="translate(367.871534 180.095267) scale(0.11 -0.11)">
       <use xlink:href="#ArialMT-2212"/>
       <use xlink:href="#ArialMT-31" x="58.398438"/>
       <use xlink:href="#ArialMT-2e" x="114.013672"/>
       <use xlink:href="#ArialMT-30" x="141.796875"/>
      </g>
     </g>
    </g>
    <g id="ytick_12">
     <g id="line2d_25">
      <path d="M 399.086222 150.801362 
L 610.857628 150.801362 
" clip-path="url(#p9be3936540)" style="fill: none; stroke: #cccccc; stroke-linecap: round"/>
     </g>
     <g id="text_26">
      <!-- −0.5 -->
      <g style="fill: #262626" transform="translate(367.871534 154.738159) scale(0.11 -0.11)">
       <use xlink:href="#ArialMT-2212"/>
       <use xlink:href="#ArialMT-30" x="58.398438"/>
       <use xlink:href="#ArialMT-2e" x="114.013672"/>
       <use xlink:href="#ArialMT-35" x="141.796875"/>
      </g>
     </g>
    </g>
    <g id="ytick_13">
     <g id="line2d_26">
      <path d="M 399.086222 125.444254 
L 610.857628 125.444254 
" clip-path="url(#p9be3936540)" style="fill: none; stroke: #cccccc; stroke-linecap: round"/>
     </g>
     <g id="text_27">
      <!-- 0.0 -->
      <g style="fill: #262626" transform="translate(374.296222 129.381051) scale(0.11 -0.11)">
       <use xlink:href="#ArialMT-30"/>
       <use xlink:href="#ArialMT-2e" x="55.615234"/>
       <use xlink:href="#ArialMT-30" x="83.398438"/>
      </g>
     </g>
    </g>
    <g id="ytick_14">
     <g id="line2d_27">
      <path d="M 399.086222 100.087146 
L 610.857628 100.087146 
" clip-path="url(#p9be3936540)" style="fill: none; stroke: #cccccc; stroke-linecap: round"/>
     </g>
     <g id="text_28">
      <!-- 0.5 -->
      <g style="fill: #262626" transform="translate(374.296222 104.023943) scale(0.11 -0.11)">
       <use xlink:href="#ArialMT-30"/>
       <use xlink:href="#ArialMT-2e" x="55.615234"/>
       <use xlink:href="#ArialMT-35" x="83.398438"/>
      </g>
     </g>
    </g>
    <g id="ytick_15">
     <g id="line2d_28">
      <path d="M 399.086222 74.730038 
L 610.857628 74.730038 
" clip-path="url(#p9be3936540)" style="fill: none; stroke: #cccccc; stroke-linecap: round"/>
     </g>
     <g id="text_29">
      <!-- 1.0 -->
      <g style="fill: #262626" transform="translate(374.296222 78.666835) scale(0.11 -0.11)">
       <use xlink:href="#ArialMT-31"/>
       <use xlink:href="#ArialMT-2e" x="55.615234"/>
       <use xlink:href="#ArialMT-30" x="83.398438"/>
      </g>
     </g>
    </g>
    <g id="ytick_16">
     <g id="line2d_29">
      <path d="M 399.086222 49.37293 
L 610.857628 49.37293 
" clip-path="url(#p9be3936540)" style="fill: none; stroke: #cccccc; stroke-linecap: round"/>
     </g>
     <g id="text_30">
      <!-- 1.5 -->
      <g style="fill: #262626" transform="translate(374.296222 53.309727) scale(0.11 -0.11)">
       <use xlink:href="#ArialMT-31"/>
       <use xlink:href="#ArialMT-2e" x="55.615234"/>
       <use xlink:href="#ArialMT-35" x="83.398438"/>
      </g>
     </g>
    </g>
    <g id="ytick_17">
     <g id="line2d_30">
      <path d="M 399.086222 24.015822 
L 610.857628 24.015822 
" clip-path="url(#p9be3936540)" style="fill: none; stroke: #cccccc; stroke-linecap: round"/>
     </g>
     <g id="text_31">
      <!-- 2.0 -->
      <g style="fill: #262626" transform="translate(374.296222 27.952619) scale(0.11 -0.11)">
       <use xlink:href="#ArialMT-32"/>
       <use xlink:href="#ArialMT-2e" x="55.615234"/>
       <use xlink:href="#ArialMT-30" x="83.398438"/>
      </g>
     </g>
    </g>
    <g id="text_32">
     <!-- Sample quantiles -->
     <g style="fill: #262626" transform="translate(361.486534 173.700703) rotate(-90) scale(0.12 -0.12)">
      <use xlink:href="#ArialMT-53"/>
      <use xlink:href="#ArialMT-61" x="66.699219"/>
      <use xlink:href="#ArialMT-6d" x="122.314453"/>
      <use xlink:href="#ArialMT-70" x="205.615234"/>
      <use xlink:href="#ArialMT-6c" x="261.230469"/>
      <use xlink:href="#ArialMT-65" x="283.447266"/>
      <use xlink:href="#ArialMT-20" x="339.0625"/>
      <use xlink:href="#ArialMT-71" x="366.845703"/>
      <use xlink:href="#ArialMT-75" x="422.460938"/>
      <use xlink:href="#ArialMT-61" x="478.076172"/>
      <use xlink:href="#ArialMT-6e" x="533.691406"/>
      <use xlink:href="#ArialMT-74" x="589.306641"/>
      <use xlink:href="#ArialMT-69" x="617.089844"/>
      <use xlink:href="#ArialMT-6c" x="639.306641"/>
      <use xlink:href="#ArialMT-65" x="661.523438"/>
      <use xlink:href="#ArialMT-73" x="717.138672"/>
     </g>
    </g>
   </g>
   <g id="PathCollection_2">
    <g clip-path="url(#p9be3936540)">
     <use xlink:href="#m8c3edf4b11" x="408.914997" y="221.132775" style="fill: #0000ff; stroke: #0000ff"/>
     <use xlink:href="#m8c3edf4b11" x="429.939168" y="209.756694" style="fill: #0000ff; stroke: #0000ff"/>
     <use xlink:href="#m8c3edf4b11" x="442.710871" y="193.191472" style="fill: #0000ff; stroke: #0000ff"/>
     <use xlink:href="#m8c3edf4b11" x="452.340819" y="185.630251" style="fill: #0000ff; stroke: #0000ff"/>
     <use xlink:href="#m8c3edf4b11" x="460.315479" y="182.316596" style="fill: #0000ff; stroke: #0000ff"/>
     <use xlink:href="#m8c3edf4b11" x="467.271776" y="177.608644" style="fill: #0000ff; stroke: #0000ff"/>
     <use xlink:href="#m8c3edf4b11" x="473.54687" y="172.078049" style="fill: #0000ff; stroke: #0000ff"/>
     <use xlink:href="#m8c3edf4b11" x="479.343997" y="165.033242" style="fill: #0000ff; stroke: #0000ff"/>
     <use xlink:href="#m8c3edf4b11" x="484.797517" y="141.779295" style="fill: #0000ff; stroke: #0000ff"/>
     <use xlink:href="#m8c3edf4b11" x="490.003006" y="137.269013" style="fill: #0000ff; stroke: #0000ff"/>
     <use xlink:href="#m8c3edf4b11" x="495.032932" y="130.324492" style="fill: #0000ff; stroke: #0000ff"/>
     <use xlink:href="#m8c3edf4b11" x="499.945646" y="124.747318" style="fill: #0000ff; stroke: #0000ff"/>
     <use xlink:href="#m8c3edf4b11" x="504.791037" y="122.082492" style="fill: #0000ff; stroke: #0000ff"/>
     <use xlink:href="#m8c3edf4b11" x="509.614462" y="119.552983" style="fill: #0000ff; stroke: #0000ff"/>
     <use xlink:href="#m8c3edf4b11" x="514.459852" y="117.661141" style="fill: #0000ff; stroke: #0000ff"/>
     <use xlink:href="#m8c3edf4b11" x="519.372566" y="114.094369" style="fill: #0000ff; stroke: #0000ff"/>
     <use xlink:href="#m8c3edf4b11" x="524.402492" y="108.453874" style="fill: #0000ff; stroke: #0000ff"/>
     <use xlink:href="#m8c3edf4b11" x="529.607981" y="101.874096" style="fill: #0000ff; stroke: #0000ff"/>
     <use xlink:href="#m8c3edf4b11" x="535.061501" y="94.946124" style="fill: #0000ff; stroke: #0000ff"/>
     <use xlink:href="#m8c3edf4b11" x="540.858628" y="84.926422" style="fill: #0000ff; stroke: #0000ff"/>
     <use xlink:href="#m8c3edf4b11" x="547.133722" y="82.211937" style="fill: #0000ff; stroke: #0000ff"/>
     <use xlink:href="#m8c3edf4b11" x="554.090019" y="78.934846" style="fill: #0000ff; stroke: #0000ff"/>
     <use xlink:href="#m8c3edf4b11" x="562.064679" y="76.50022" style="fill: #0000ff; stroke: #0000ff"/>
     <use xlink:href="#m8c3edf4b11" x="571.694627" y="50.37281" style="fill: #0000ff; stroke: #0000ff"/>
     <use xlink:href="#m8c3edf4b11" x="584.46633" y="37.789521" style="fill: #0000ff; stroke: #0000ff"/>
     <use xlink:href="#m8c3edf4b11" x="605.490501" y="31.281918" style="fill: #0000ff; stroke: #0000ff"/>
    </g>
   </g>
   <g id="line2d_31">
    <path d="M 399.086222 233.560781 
L 610.857628 21.789375 
" clip-path="url(#p9be3936540)" style="fill: none; stroke: #708090; stroke-width: 1.5; stroke-linecap: round"/>
   </g>
   <g id="line2d_32">
    <path d="M 408.914997 229.263322 
L 429.939168 207.055978 
L 442.710871 193.565526 
L 452.340819 183.393635 
L 460.315479 174.970187 
L 467.271776 167.622412 
L 473.54687 160.994176 
L 479.343997 154.870806 
L 484.797517 149.110379 
L 490.003006 143.611942 
L 495.032932 138.298948 
L 499.945646 133.109763 
L 504.791037 127.99169 
L 509.614462 122.896818 
L 514.459852 117.778744 
L 519.372566 112.589559 
L 524.402492 107.276565 
L 529.607981 101.778128 
L 535.061501 96.017702 
L 540.858628 89.894331 
L 547.133722 83.266095 
L 554.090019 75.918321 
L 562.064679 67.494872 
L 571.694627 57.322982 
L 584.46633 43.832529 
L 605.490501 21.625185 
" clip-path="url(#p9be3936540)" style="fill: none; stroke: #c44e52; stroke-width: 2; stroke-linecap: round"/>
   </g>
   <g id="line2d_33">
    <path d="M 408.914997 182.900328 
L 429.939168 168.647211 
L 442.710871 159.410919 
L 452.340819 151.768698 
L 460.315479 145.032214 
L 467.271776 138.883833 
L 473.54687 133.139738 
L 479.343997 127.67959 
L 484.797517 122.417395 
L 490.003006 117.287078 
L 495.032932 112.234392 
L 499.945646 107.211842 
L 504.791037 102.175128 
L 509.614462 97.080256 
L 514.459852 91.880824 
L 519.372566 86.525002 
L 524.402492 80.951702 
L 529.607981 75.085144 
L 535.061501 68.826486 
L 540.858628 62.039893 
L 547.133722 54.527516 
L 554.090019 45.980348 
L 562.064679 35.869935 
L 571.694627 23.168375 
L 584.46633 5.423761 
L 588.944023 -1 
" clip-path="url(#p9be3936540)" style="fill: none; stroke-dasharray: 4.625,2; stroke-dashoffset: 0; stroke: #c44e52; stroke-width: 1.25"/>
   </g>
   <g id="line2d_34">
    <path d="M 408.914997 275.626316 
L 429.939168 245.464746 
L 442.710871 227.720133 
L 452.340819 215.018572 
L 460.315479 204.908159 
L 467.271776 196.360991 
L 473.54687 188.848614 
L 479.343997 182.062021 
L 484.797517 175.803364 
L 490.003006 169.936806 
L 495.032932 164.363505 
L 499.945646 159.007684 
L 504.791037 153.808252 
L 509.614462 148.71338 
L 514.459852 143.676665 
L 519.372566 138.654116 
L 524.402492 133.601429 
L 529.607981 128.471113 
L 535.061501 123.208917 
L 540.858628 117.748769 
L 547.133722 112.004674 
L 554.090019 105.856293 
L 562.064679 99.119809 
L 571.694627 91.477589 
L 584.46633 82.241297 
L 605.490501 67.988179 
" clip-path="url(#p9be3936540)" style="fill: none; stroke-dasharray: 4.625,2; stroke-dashoffset: 0; stroke: #c44e52; stroke-width: 1.25"/>
   </g>
   <g id="patch_8">
    <path d="M 399.086222 233.560781 
L 399.086222 21.789375 
" style="fill: none; stroke: #cccccc; stroke-width: 1.25; stroke-linejoin: miter; stroke-linecap: square"/>
   </g>
   <g id="patch_9">
    <path d="M 610.857628 233.560781 
L 610.857628 21.789375 
" style="fill: none; stroke: #cccccc; stroke-width: 1.25; stroke-linejoin: miter; stroke-linecap: square"/>
   </g>
   <g id="patch_10">
    <path d="M 399.086222 233.560781 
L 610.857628 233.560781 
" style="fill: none; stroke: #cccccc; stroke-width: 1.25; stroke-linejoin: miter; stroke-linecap: square"/>
   </g>
   <g id="patch_11">
    <path d="M 399.086222 21.789375 
L 610.857628 21.789375 
" style="fill: none; stroke: #cccccc; stroke-width: 1.25; stroke-linejoin: miter; stroke-linecap: square"/>
   </g>
   <g id="text_33">
    <!-- $R^2=0.985$ -->
    <g style="fill: #262626" transform="translate(526.149065 212.383641) scale(0.12 -0.12)">
     <defs>
      <path id="DejaVuSans-38" d="M 2034 2216 
Q 1584 2216 1326 1975 
Q 1069 1734 1069 1313 
Q 1069 891 1326 650 
Q 1584 409 2034 409 
Q 2484 409 2743 651 
Q 3003 894 3003 1313 
Q 3003 1734 2745 1975 
Q 2488 2216 2034 2216 
z
M 1403 2484 
Q 997 2584 770 2862 
Q 544 3141 544 3541 
Q 544 4100 942 4425 
Q 1341 4750 2034 4750 
Q 2731 4750 3128 4425 
Q 3525 4100 3525 3541 
Q 3525 3141 3298 2862 
Q 3072 2584 2669 2484 
Q 3125 2378 3379 2068 
Q 3634 1759 3634 1313 
Q 3634 634 3220 271 
Q 2806 -91 2034 -91 
Q 1263 -91 848 271 
Q 434 634 434 1313 
Q 434 1759 690 2068 
Q 947 2378 1403 2484 
z
M 1172 3481 
Q 1172 3119 1398 2916 
Q 1625 2713 2034 2713 
Q 2441 2713 2670 2916 
Q 2900 3119 2900 3481 
Q 2900 3844 2670 4047 
Q 2441 4250 2034 4250 
Q 1625 4250 1398 4047 
Q 1172 3844 1172 3481 
z
" transform="scale(0.015625)"/>
     </defs>
     <use xlink:href="#DejaVuSans-Oblique-52" transform="translate(0 0.765625)"/>
     <use xlink:href="#DejaVuSans-32" transform="translate(76.499193 39.046875) scale(0.7)"/>
     <use xlink:href="#DejaVuSans-3d" transform="translate(143.252122 0.765625)"/>
     <use xlink:href="#DejaVuSans-30" transform="translate(246.523607 0.765625)"/>
     <use xlink:href="#DejaVuSans-2e" transform="translate(310.146654 0.765625)"/>
     <use xlink:href="#DejaVuSans-39" transform="translate(341.933763 0.765625)"/>
     <use xlink:href="#DejaVuSans-38" transform="translate(405.55681 0.765625)"/>
     <use xlink:href="#DejaVuSans-35" transform="translate(469.179857 0.765625)"/>
    </g>
   </g>
   <g id="text_34">
    <!-- Model residuals -->
    <g style="fill: #262626" transform="translate(462.954112 15.789375) scale(0.12 -0.12)">
     <defs>
      <path id="ArialMT-4d" d="M 475 0 
L 475 4581 
L 1388 4581 
L 2472 1338 
Q 2622 884 2691 659 
Q 2769 909 2934 1394 
L 4031 4581 
L 4847 4581 
L 4847 0 
L 4263 0 
L 4263 3834 
L 2931 0 
L 2384 0 
L 1059 3900 
L 1059 0 
L 475 0 
z
" transform="scale(0.015625)"/>
     </defs>
     <use xlink:href="#ArialMT-4d"/>
     <use xlink:href="#ArialMT-6f" x="83.300781"/>
     <use xlink:href="#ArialMT-64" x="138.916016"/>
     <use xlink:href="#ArialMT-65" x="194.53125"/>
     <use xlink:href="#ArialMT-6c" x="250.146484"/>
     <use xlink:href="#ArialMT-20" x="272.363281"/>
     <use xlink:href="#ArialMT-72" x="300.146484"/>
     <use xlink:href="#ArialMT-65" x="333.447266"/>
     <use xlink:href="#ArialMT-73" x="389.0625"/>
     <use xlink:href="#ArialMT-69" x="439.0625"/>
     <use xlink:href="#ArialMT-64" x="461.279297"/>
     <use xlink:href="#ArialMT-75" x="516.894531"/>
     <use xlink:href="#ArialMT-61" x="572.509766"/>
     <use xlink:href="#ArialMT-6c" x="628.125"/>
     <use xlink:href="#ArialMT-73" x="650.341797"/>
    </g>
   </g>
  </g>
 </g>
 <defs>
  <clipPath id="p075f22d7de">
   <rect x="53.535313" y="21.789375" width="211.771406" height="211.771406"/>
  </clipPath>
  <clipPath id="p9be3936540">
   <rect x="399.086222" y="21.789375" width="211.771406" height="211.771406"/>
  </clipPath>
 </defs>
</svg>
